<svg width="88" height="79" fill="none" xmlns="http://www.w3.org/2000/svg"><g opacity=".15" fill="#fff"><path d="M18.602 24.88a.729.729 0 0 1-.463-.18.848.848 0 0 1-.267-.451.908.908 0 0 1 .04-.535.816.816 0 0 1 .328-.4l2.065-1.204a.709.709 0 0 1 .573-.044c.19.066.347.21.44.402a.906.906 0 0 1 .062.623.83.83 0 0 1-.353.495l-2.073 1.204a.705.705 0 0 1-.352.09zm6.347-3.654a.727.727 0 0 1-.472-.178.847.847 0 0 1-.27-.458.908.908 0 0 1 .043-.542c.07-.17.19-.31.341-.398l9.81-5.624c1.35-.768 2.364-2.09 2.821-3.674a6.781 6.781 0 0 0-.384-4.774 6.12 6.12 0 0 0-1.398-1.902 5.54 5.54 0 0 0-1.964-1.164A5.1 5.1 0 0 0 31.3 2.25a5.198 5.198 0 0 0-2.1.68l-1.105.61a.708.708 0 0 1-.575.033.792.792 0 0 1-.434-.414.906.906 0 0 1-.048-.626.825.825 0 0 1 .365-.486l1.093-.604a6.631 6.631 0 0 1 2.67-.857 6.508 6.508 0 0 1 2.768.335c.914.307 1.763.81 2.497 1.48a7.765 7.765 0 0 1 1.777 2.422c1.842 3.91.454 8.7-3.094 10.701l-9.803 5.62a.714.714 0 0 1-.362.09v-.008zm-11.54-9.405a.727.727 0 0 1-.474-.178.847.847 0 0 1-.272-.458.907.907 0 0 1 .045-.544c.07-.171.192-.311.344-.398l9.991-5.722a.709.709 0 0 1 .572-.038.79.79 0 0 1 .437.405.906.906 0 0 1 .058.622.83.83 0 0 1-.354.492l-9.992 5.73a.72.72 0 0 1-.355.096v-.007z"/><path d="M31.053 12.422a3.383 3.383 0 0 1-1.813-.53 3.72 3.72 0 0 1-1.312-1.445 4.059 4.059 0 0 1-.446-1.96 4.036 4.036 0 0 1 .544-1.932c.241-.432.56-.81.938-1.108a3.431 3.431 0 0 1 1.265-.632c.456-.118.93-.138 1.394-.057.463.08.907.259 1.306.526.806.544 1.38 1.406 1.6 2.401.219.995.065 2.043-.428 2.917a3.696 3.696 0 0 1-1.303 1.336 3.38 3.38 0 0 1-1.745.484zm.012-6.133a1.997 1.997 0 0 0-1.227.432 2.164 2.164 0 0 0-.553.653 2.426 2.426 0 0 0-.263 1.71c.125.586.46 1.094.931 1.416a1.982 1.982 0 0 0 1.586.278 2.117 2.117 0 0 0 1.305-1.005 2.45 2.45 0 0 0 .256-1.728c-.13-.59-.47-1.1-.948-1.422a1.93 1.93 0 0 0-1.087-.328V6.29zM29.437 71.75a3.582 3.582 0 0 1-1.993-.585 3.548 3.548 0 0 1-.576-5.481 3.576 3.576 0 0 1 3.896-.786 3.57 3.57 0 0 1 1.61 1.31 3.551 3.551 0 0 1-.432 4.488 3.58 3.58 0 0 1-2.505 1.054zm0-5.479c-.512 0-1.004.203-1.366.563a1.909 1.909 0 0 0-.006 2.713 1.923 1.923 0 0 0 2.714 0c.36-.358.562-.845.562-1.352a1.932 1.932 0 0 0-.56-1.348 1.946 1.946 0 0 0-1.344-.576zM26.706 78.276h-1.749a.69.69 0 0 1-.297-.068.777.777 0 0 1-.251-.193.908.908 0 0 1-.168-.288 1.005 1.005 0 0 1 0-.682.908.908 0 0 1 .168-.288.777.777 0 0 1 .252-.193.69.69 0 0 1 .296-.068h1.749c.205 0 .402.094.548.26a.96.96 0 0 1 .227.63.96.96 0 0 1-.227.63.728.728 0 0 1-.548.26zm-4.635 0h-2.975a.69.69 0 0 1-.297-.068.777.777 0 0 1-.251-.193.91.91 0 0 1-.168-.288 1.007 1.007 0 0 1 0-.682.91.91 0 0 1 .168-.288.777.777 0 0 1 .252-.193.69.69 0 0 1 .296-.068h2.975a.69.69 0 0 1 .296.068c.095.045.18.11.252.193a.91.91 0 0 1 .168.288 1.007 1.007 0 0 1 0 .682.91.91 0 0 1-.168.288.777.777 0 0 1-.252.193.69.69 0 0 1-.296.068zm-5.83 0h-2.332a.728.728 0 0 1-.548-.26.961.961 0 0 1-.228-.63c0-.236.082-.462.228-.63a.728.728 0 0 1 .548-.26h2.332a.69.69 0 0 1 .296.068c.094.045.18.11.252.193.072.082.129.18.168.288a1.005 1.005 0 0 1 0 .682.908.908 0 0 1-.168.288.777.777 0 0 1-.252.193.69.69 0 0 1-.296.068zm-8.163 0H.775a.728.728 0 0 1-.548-.26.961.961 0 0 1-.227-.63c0-.236.081-.462.227-.63a.728.728 0 0 1 .548-.26h7.298a.69.69 0 0 1 .297.068c.094.045.18.11.252.193a.91.91 0 0 1 .168.288 1.006 1.006 0 0 1 0 .682.91.91 0 0 1-.168.288.778.778 0 0 1-.252.193.69.69 0 0 1-.297.068h.005zM85.757 35.56a1.598 1.598 0 0 1-1.172-.513c-.312-.33-.49-.78-.493-1.25.005-.474.181-.927.493-1.262A1.635 1.635 0 0 1 85.757 32c.438.006.856.199 1.162.536.306.336.475.79.47 1.26.003.232-.037.462-.118.677-.08.215-.2.41-.353.574a1.617 1.617 0 0 1-.532.382 1.52 1.52 0 0 1-.63.13zM81.361 28.44a1.64 1.64 0 0 1-1.173-.534 1.88 1.88 0 0 1-.493-1.259c0-.468.174-.918.483-1.249.31-.331.729-.517 1.166-.517.437 0 .857.186 1.166.517.31.331.483.78.483 1.249 0 .468-.171.917-.476 1.252-.305.335-.72.53-1.156.541zm0-1.757a.069.069 0 0 0-.04 0h.04zM68.203 52.171a3.998 3.998 0 0 1-2.458-.822c-.73-.548-1.302-1.333-1.642-2.254a5.73 5.73 0 0 1-.268-2.92 5.317 5.317 0 0 1 1.196-2.597c.614-.71 1.399-1.196 2.254-1.393a3.876 3.876 0 0 1 2.549.284c.806.383 1.495 1.032 1.978 1.865.484.832.74 1.811.737 2.812 0 1.326-.458 2.597-1.271 3.538-.814.941-1.92 1.476-3.075 1.487zm0-8.389c-.762.02-1.487.382-2.02 1.007-.532.625-.83 1.465-.83 2.339 0 .874.298 1.713.83 2.338.533.625 1.258.987 2.02 1.007.762-.02 1.487-.382 2.02-1.007.532-.625.83-1.464.83-2.338 0-.874-.298-1.714-.83-2.34-.533-.624-1.258-.985-2.02-1.005z"/><path d="M68.435 43.272a.713.713 0 0 1-.41-.13.804.804 0 0 1-.279-.353 9.277 9.277 0 0 1-.693-3.606c0-4.941 3.676-8.963 8.195-8.963a8.176 8.176 0 0 1 1.633.17c.097.02.19.06.273.12a.786.786 0 0 1 .21.223.856.856 0 0 1 .118.613.845.845 0 0 1-.108.299.78.78 0 0 1-.206.229.686.686 0 0 1-.568.122 6.899 6.899 0 0 0-1.352-.148c-3.688 0-6.686 3.288-6.686 7.328a7.506 7.506 0 0 0 .562 2.936.884.884 0 0 1 .016.626.796.796 0 0 1-.396.456.734.734 0 0 1-.309.078z"/><path d="M70.562 43.272a.724.724 0 0 1-.43-.144.794.794 0 0 1-.208-.23.863.863 0 0 1-.107-.62 9.734 9.734 0 0 1 1.318-3.367 8.476 8.476 0 0 1 2.65-2.723 7.7 7.7 0 0 1 3.479-1.193 7.561 7.561 0 0 1 3.61.574 8.157 8.157 0 0 1 3.016 2.228.84.84 0 0 1 .155.276.888.888 0 0 1-.026.632.825.825 0 0 1-.176.26.75.75 0 0 1-.254.166.706.706 0 0 1-.582-.031.768.768 0 0 1-.238-.193 6.664 6.664 0 0 0-2.462-1.789 6.187 6.187 0 0 0-2.933-.454c-.996.089-1.962.42-2.824.97a6.933 6.933 0 0 0-2.16 2.202c-.53.836-.9 1.78-1.088 2.773a.838.838 0 0 1-.261.475.722.722 0 0 1-.48.188z"/><path d="M84.983 49.202a.704.704 0 0 1-.486-.203.914.914 0 0 1-.262-.514 9.063 9.063 0 0 0-.382-1.489 8.014 8.014 0 0 0-1.435-2.569 6.833 6.833 0 0 0-2.18-1.736 6.014 6.014 0 0 0-2.594-.637 5.985 5.985 0 0 0-2.606.56 7.11 7.11 0 0 0-2.268 1.79.723.723 0 0 1-.534.275.71.71 0 0 1-.547-.24.946.946 0 0 1-.238-.616.96.96 0 0 1 .21-.629 8.655 8.655 0 0 1 2.778-2.191 7.342 7.342 0 0 1 3.198-.696 7.371 7.371 0 0 1 3.185.776 8.372 8.372 0 0 1 2.68 2.128 9.823 9.823 0 0 1 1.763 3.153c.204.587.36 1.194.463 1.814a.989.989 0 0 1-.121.657.765.765 0 0 1-.489.367.74.74 0 0 1-.135 0z"/><path d="M81.58 58.698a.742.742 0 0 1-.37-.1.819.819 0 0 1-.283-.277.93.93 0 0 1-.083-.799c.18-.496.325-1.007.436-1.527.755-4.155-1.704-8.233-5.487-9.065a6.289 6.289 0 0 0-2.832 0 .749.749 0 0 1-.593-.119.873.873 0 0 1-.35-.535.925.925 0 0 1 .106-.649.795.795 0 0 1 .497-.376 7.77 7.77 0 0 1 3.49 0c4.63 1.018 7.642 6.002 6.713 11.108-.13.613-.3 1.214-.51 1.8a.853.853 0 0 1-.291.39.75.75 0 0 1-.443.149z"/><path d="M73.871 64.037a.693.693 0 0 1-.443-.163.85.85 0 0 1-.273-.427.948.948 0 0 1 .005-.527.843.843 0 0 1 .28-.421c.376-.28.729-.598 1.055-.95 1.278-1.404 2.015-3.32 2.052-5.333.037-2.013-.629-3.961-1.855-5.424a6.956 6.956 0 0 0-2.22-1.735.747.747 0 0 1-.25-.185.859.859 0 0 1-.166-.28.94.94 0 0 1 .007-.66.85.85 0 0 1 .171-.275.741.741 0 0 1 .254-.178.673.673 0 0 1 .584.029 8.47 8.47 0 0 1 2.706 2.11c1.495 1.784 2.31 4.16 2.266 6.615-.043 2.455-.94 4.793-2.496 6.509-.385.42-.802.8-1.247 1.135a.688.688 0 0 1-.43.16z"/><path d="M64.53 64.037a.72.72 0 0 1-.296-.065.774.774 0 0 1-.251-.183.853.853 0 0 1-.168-.274.91.91 0 0 1 .168-.92.775.775 0 0 1 .251-.184.721.721 0 0 1 .297-.064 6.86 6.86 0 0 0 1.359-.12c3.727-.753 6.216-4.71 5.551-8.821a8.315 8.315 0 0 0-1.076-2.884.908.908 0 0 1-.117-.635.853.853 0 0 1 .33-.539.725.725 0 0 1 .582-.127c.202.044.38.173.494.36a10.104 10.104 0 0 1 1.316 3.512c.805 5.036-2.236 9.87-6.79 10.793a8.248 8.248 0 0 1-1.65.15z"/><path d="M60.405 61.664a7.414 7.414 0 0 1-2.982-.633 9.76 9.76 0 0 1-1.5-.875.791.791 0 0 1-.245-.227.911.911 0 0 1-.142-.32.971.971 0 0 1 .1-.692.819.819 0 0 1 .225-.253.711.711 0 0 1 .296-.127.677.677 0 0 1 .317.02.733.733 0 0 1 .281.164c.4.276.818.516 1.251.718a5.992 5.992 0 0 0 2.583.5 6.046 6.046 0 0 0 2.555-.662 6.846 6.846 0 0 0 2.177-1.738 7.868 7.868 0 0 0 1.417-2.553 8.735 8.735 0 0 0 .433-3.088.936.936 0 0 1 .19-.623.733.733 0 0 1 .524-.29c.201-.01.398.07.548.22.151.151.244.363.26.59a10.645 10.645 0 0 1-.527 3.792c-.598 1.784-1.66 3.32-3.048 4.405-1.387 1.086-3.033 1.669-4.72 1.672h.007z"/><path d="M59.956 56.324a7.313 7.313 0 0 1-1.584-.18 7.694 7.694 0 0 1-3.007-1.405 8.905 8.905 0 0 1-2.296-2.624 8.524 8.524 0 0 1-.792-1.695.977.977 0 0 1-.005-.678.887.887 0 0 1 .17-.287.761.761 0 0 1 .253-.189.68.68 0 0 1 .594.016.773.773 0 0 1 .246.202c.07.086.123.186.158.296a6.8 6.8 0 0 0 .633 1.349 7.295 7.295 0 0 0 1.877 2.153 6.3 6.3 0 0 0 2.462 1.155c.868.194 1.762.189 2.63-.016a6.253 6.253 0 0 0 2.418-1.178 7.727 7.727 0 0 0 1.928-2.29.837.837 0 0 1 .204-.252.72.72 0 0 1 .274-.143.668.668 0 0 1 .301-.01c.1.02.196.061.281.124.086.062.16.143.217.238a.991.991 0 0 1 .007.978 9.359 9.359 0 0 1-2.347 2.785c-1.36 1.07-2.97 1.646-4.622 1.651z"/><path d="M61.927 50.985c-2.248.003-4.406-.957-6.003-2.672-1.648-1.749-2.587-4.136-2.61-6.635a10.84 10.84 0 0 1 .165-1.856.902.902 0 0 1 .114-.312.833.833 0 0 1 .217-.24.733.733 0 0 1 .882-.012.829.829 0 0 1 .221.235.901.901 0 0 1 .126.644 8.815 8.815 0 0 0-.143 1.527c.02 2.042.788 3.992 2.133 5.423 1.014 1.068 2.3 1.784 3.692 2.056a6.607 6.607 0 0 0 4.121-.53.738.738 0 0 1 .608-.012.827.827 0 0 1 .438.456c.085.21.089.446.012.659a.835.835 0 0 1-.42.475 8.364 8.364 0 0 1-3.553.794zM64.096 45.646a.666.666 0 0 1-.208-.034 7.484 7.484 0 0 1-3.057-1.916c-3.537-3.562-4.161-10.146-1.392-14.679a8.657 8.657 0 0 1 1.113-1.512.728.728 0 0 1 .538-.251.727.727 0 0 1 .541.245.896.896 0 0 1 .227.598.898.898 0 0 1-.221.6 7.07 7.07 0 0 0-.922 1.236c-2.375 3.881-1.859 9.483 1.135 12.498a6.026 6.026 0 0 0 2.448 1.542c.178.056.331.18.433.352a.924.924 0 0 1 .117.582.878.878 0 0 1-.255.523.721.721 0 0 1-.503.209l.006.007z"/><path d="M66.495 43.866a.714.714 0 0 1-.475-.185 9.606 9.606 0 0 1-2.221-2.882c-2.317-4.526-1-10.246 2.94-12.746a6.613 6.613 0 0 1 1.513-.751.696.696 0 0 1 .584.036c.09.048.17.115.236.198a.827.827 0 0 1 .145.282.867.867 0 0 1-.058.63.792.792 0 0 1-.193.246.727.727 0 0 1-.267.145c-.42.146-.821.347-1.195.598-3.26 2.066-4.327 6.815-2.395 10.589a7.997 7.997 0 0 0 1.862 2.412.815.815 0 0 1 .245.408c.04.16.035.33-.017.486a.802.802 0 0 1-.273.387.71.71 0 0 1-.43.147h-.001zM12.9 50.985c-3.173 0-5.755-2.827-5.755-6.301a6.578 6.578 0 0 1 1.005-3.443 5.878 5.878 0 0 1 2.606-2.263 5.376 5.376 0 0 1 3.331-.322c1.116.25 2.138.85 2.938 1.726a6.404 6.404 0 0 1 1.557 3.194 6.69 6.69 0 0 1-.346 3.591 6.147 6.147 0 0 1-2.132 2.78 5.472 5.472 0 0 1-3.204 1.038zm0-10.935c-1.132.008-2.215.5-3.01 1.37-.796.868-1.24 2.042-1.235 3.264 0 2.574 1.904 4.668 4.245 4.668 1.143 0 2.239-.49 3.047-1.362.808-.872 1.262-2.055 1.262-3.289s-.454-2.417-1.262-3.289c-.808-.872-1.904-1.362-3.047-1.362z"/><path d="M7.924 48.612c-1.424 0-2.566-.297-3.137-.994a1.711 1.711 0 0 1-.334-.659 1.788 1.788 0 0 1-.031-.748c.217-1.348 1.795-2.563 3.08-3.333a.734.734 0 0 1 .593-.095c.1.028.194.077.275.144.082.068.15.152.2.249a.864.864 0 0 1 .066.64.841.841 0 0 1-.145.288.778.778 0 0 1-.239.205c-1.858 1.12-2.354 2.016-2.323 2.22.506.617 3.857.814 8.482-.976 4.026-1.548 5.558-3.293 5.49-3.727-.213-.272-1.093-.619-3.186-.4a.733.733 0 0 1-.546-.194.864.864 0 0 1-.103-1.138.756.756 0 0 1 .5-.303c2.291-.242 3.8.079 4.48.945.173.21.293.463.35.736.058.272.05.556-.021.825-.454 1.88-3.628 3.717-6.448 4.802-2.346.903-4.961 1.513-7.003 1.513z"/></g></svg>