<svg width="273" height="292" fill="none" xmlns="http://www.w3.org/2000/svg"><g opacity=".10" clip-path="url(#a)" fill="#fff"><path d="M257.21 132.357a2.28 2.28 0 0 1-1.903-.813 2.288 2.288 0 0 1-.522-1.229l-.256-2.467-3.039-.769a2.296 2.296 0 0 1-1.723-2.103 2.183 2.183 0 0 1 .385-1.356c.273-.393.67-.682 1.129-.821l2.641-.806-.239-2.301c-.05-.461.043-.923.269-1.32a2.13 2.13 0 0 1 .984-.897 2.177 2.177 0 0 1 1.336-.14c.453.095.869.329 1.189.669l2.07 2.218 3.021-.919c.44-.136.917-.127 1.36.025a2.29 2.29 0 0 1 1.54 2.133c.004.468-.138.921-.407 1.294l-1.315 1.834 1.774 1.884c.33.352.541.798.603 1.273.061.475-.03.953-.262 1.364-.232.41-.591.731-1.024.914a2.178 2.178 0 0 1-1.381.105l-3.152-.797-1.524 2.128a2.133 2.133 0 0 1-1.554.897zM74.996 284.711c-29.666 2.325-56.37-20.362-59.504-50.574-3.134-30.212 18.462-56.655 48.138-58.98 29.674-2.324 56.369 20.363 59.5 50.547 3.131 30.184-18.459 56.682-48.134 59.007zm-10.91-105.149c-27.251 2.135-47.084 26.463-44.203 54.231 2.88 27.768 27.402 48.626 54.653 46.491 27.252-2.135 47.089-26.464 44.207-54.251-2.883-27.786-27.418-48.606-54.657-46.471z"/><path d="M23.506 255.977c-8.966.704-16.123.097-19.83-2.395-2.153-1.449-2.757-3.253-2.887-4.51-.486-4.699 4.427-9.991 15.48-16.648a2.18 2.18 0 0 1 1.676-.235 2.304 2.304 0 0 1 1.66 2.73 2.157 2.157 0 0 1-.989 1.366C5.773 244.013 5.101 247.756 5.2 248.716c.02.186.063.612.87 1.152 5.676 3.824 29.871 2.173 63.529-8.401 39.636-12.329 63.156-27.793 62.57-33.452-.165-1.596-4.904-3.656-17.291-2.782a2.256 2.256 0 0 1-1.567-.57 2.309 2.309 0 0 1-.771-1.493 2.208 2.208 0 0 1 .452-1.59c.349-.445.86-.734 1.425-.804 14.108-1 21.555 1.324 22.132 6.895 1.152 11.133-32.925 27.936-65.57 38.102-16.112 5.072-33.875 9.137-47.473 10.204zM70.873 201.742a8.407 8.407 0 0 1-6.061-1.971 8.588 8.588 0 0 1-3.015-5.669 8.166 8.166 0 0 1 1.799-6.046 7.992 7.992 0 0 1 5.557-2.881 8.407 8.407 0 0 1 6.061 1.971 8.593 8.593 0 0 1 3.015 5.669 8.164 8.164 0 0 1-1.8 6.046 7.988 7.988 0 0 1-5.556 2.881zm-1.259-12.126a3.711 3.711 0 0 0-2.493 1.378 3.8 3.8 0 0 0-.796 2.761 3.995 3.995 0 0 0 1.351 2.591 3.915 3.915 0 0 0 2.737.969 3.69 3.69 0 0 0 2.533-1.381c.62-.785.9-1.792.778-2.803a3.917 3.917 0 0 0-1.354-2.594 3.836 3.836 0 0 0-2.756-.921z"/><path d="M97.024 214.534a7.502 7.502 0 0 1-5.088-1.936 7.623 7.623 0 0 1-2.492-4.876 7.262 7.262 0 0 1 1.448-5.185 7.088 7.088 0 0 1 4.608-2.694 7.496 7.496 0 0 1 5.088 1.935 7.621 7.621 0 0 1 2.492 4.876 7.263 7.263 0 0 1-1.448 5.185 7.096 7.096 0 0 1-4.608 2.695zm-1.065-10.265a2.813 2.813 0 0 0-1.881 1.049 2.883 2.883 0 0 0-.599 2.088 3.024 3.024 0 0 0 1.019 1.961 2.973 2.973 0 0 0 2.066.741 2.818 2.818 0 0 0 1.883-1.05 2.884 2.884 0 0 0 .598-2.088 3.023 3.023 0 0 0-1.019-1.961 2.968 2.968 0 0 0-2.067-.74zM147.797 62.94a2.23 2.23 0 0 1-1.27-.28 2.302 2.302 0 0 1-1.167-2.226c.045-.44.22-.854.502-1.187l9.639-11.438a2.144 2.144 0 0 1 1.513-.831c.298-.027.6.007.886.101a2.309 2.309 0 0 1 1.582 2.025 2.21 2.21 0 0 1-.117.885c-.098.282-.252.54-.454.758l-9.639 11.439c-.369.438-.898.71-1.475.754z"/><path d="M187.508 75.936a2.197 2.197 0 0 1-.863-.104 2.268 2.268 0 0 1-.766-.43l-56.147-47.986a2.287 2.287 0 0 1-.787-1.477c-.065-.57.091-1.14.438-1.585L145.867 3.14a2.146 2.146 0 0 1 1.497-.816c.29-.023.585.012.864.105.28.092.54.24.765.433l56.092 47.991c.434.38.71.909.769 1.478a2.165 2.165 0 0 1-.453 1.573L189 75.116a2.11 2.11 0 0 1-1.497.816l.005.004zM134.145 25.48l52.75 45.076 13.75-17.762-52.691-45.085-13.809 17.77zM139.243 131.183a2.257 2.257 0 0 1-1.659-.564l-54.815-48.62a2.283 2.283 0 0 1-.754-1.47 2.176 2.176 0 0 1 .44-1.562l16.59-21.307a2.094 2.094 0 0 1 1.511-.812 2.21 2.21 0 0 1 .879.111c.284.097.548.249.775.448l54.901 48.614c.429.38.7.908.759 1.473.058.566-.1 1.127-.443 1.568l-16.649 21.311a2.11 2.11 0 0 1-1.535.81zM87.215 80.12l51.472 45.659 13.961-17.878-51.536-45.645L87.215 80.12zM148.697 84.283a2.215 2.215 0 0 1-.894-.115 2.288 2.288 0 0 1-.783-.462L126.743 65.34a2.28 2.28 0 0 1-.751-1.572 2.195 2.195 0 0 1 .129-.866 2.14 2.14 0 0 1 .458-.74l10.48-11.064a2.148 2.148 0 0 1 1.519-.662 2.26 2.26 0 0 1 1.572.61l19.762 18.49a2.299 2.299 0 0 1 .725 1.546c.015.29-.026.579-.123.85-.096.271-.246.52-.438.73l-9.972 10.932c-.363.4-.864.646-1.407.689zM131.356 63.63l16.923 15.345 7.061-7.735-16.522-15.46-7.462 7.85z"/><path d="M141.449 36.512a2.24 2.24 0 0 1-1.268-.281 2.333 2.333 0 0 1-.917-.943 2.293 2.293 0 0 1-.252-1.283 2.18 2.18 0 0 1 .496-1.188l16.385-19.61a2.135 2.135 0 0 1 1.506-.804c.294-.026.591.01.875.102a2.298 2.298 0 0 1 1.331 1.14c.138.267.222.559.247.856a2.183 2.183 0 0 1-.534 1.637l-16.376 19.608a2.123 2.123 0 0 1-1.493.766zM149.601 42.807a2.245 2.245 0 0 1-1.269-.28 2.315 2.315 0 0 1-1.173-2.221c.042-.44.213-.855.492-1.19l16.361-19.695a2.153 2.153 0 0 1 1.504-.81c.295-.026.592.008.876.1.285.092.549.239.778.434a2.305 2.305 0 0 1 .806 1.558c.025.298-.008.596-.099.878-.091.28-.237.54-.431.761l-16.361 19.7a2.158 2.158 0 0 1-1.484.765zM158.007 49.12a2.208 2.208 0 0 1-.868-.103 2.25 2.25 0 0 1-.769-.437 2.31 2.31 0 0 1-.811-1.524 2.221 2.221 0 0 1 .08-.867 2.17 2.17 0 0 1 .404-.76l16.375-19.612a2.14 2.14 0 0 1 1.499-.766 2.24 2.24 0 0 1 1.625.542 2.296 2.296 0 0 1 .799 1.53c.03.294.001.588-.085.866a2.17 2.17 0 0 1-.408.758l-16.354 19.635c-.375.436-.909.7-1.487.738zM166.366 57.774a2.236 2.236 0 0 1-1.263-.282 2.314 2.314 0 0 1-.915-.939 2.287 2.287 0 0 1-.255-1.278 2.18 2.18 0 0 1 .489-1.187l16.365-19.7a2.143 2.143 0 0 1 1.497-.768 2.261 2.261 0 0 1 1.626.538c.455.389.744.938.802 1.53a2.195 2.195 0 0 1-.492 1.624l-16.365 19.696c-.37.447-.906.722-1.489.766zM175.218 64.873a2.24 2.24 0 0 1-1.266-.282 2.318 2.318 0 0 1-.917-.94 2.28 2.28 0 0 1-.254-1.281c.042-.44.213-.853.492-1.188l16.375-19.613a2.146 2.146 0 0 1 1.498-.766 2.257 2.257 0 0 1 1.626.541c.454.39.742.94.8 1.531a2.204 2.204 0 0 1-.494 1.624l-16.375 19.613a2.15 2.15 0 0 1-1.485.761z"/><path d="M195.374 63.496a2.195 2.195 0 0 1-.852-.104 2.281 2.281 0 0 1-.757-.425l-54.924-46.41a2.288 2.288 0 0 1-.796-1.505 2.178 2.178 0 0 1 .48-1.603 2.129 2.129 0 0 1 1.475-.761 2.244 2.244 0 0 1 1.605.526l54.926 46.41c.335.285.582.66.709 1.08.127.42.129.865.006 1.279a2.126 2.126 0 0 1-1.872 1.513zM147.576 118.892a2.2 2.2 0 0 1-.851-.102 2.25 2.25 0 0 1-.756-.423L90.951 71.964a2.306 2.306 0 0 1-.546-.677 2.266 2.266 0 0 1-.253-.83c-.03-.288-.002-.579.08-.854a2.127 2.127 0 0 1 1.058-1.284 2.188 2.188 0 0 1 1.669-.13c.276.092.533.234.756.423l55.017 46.404c.336.284.583.66.71 1.079.127.42.129.865.005 1.279a2.123 2.123 0 0 1-1.872 1.513l.001.005z"/><path d="M93.513 89.434a2.248 2.248 0 0 1-1.267-.284 2.32 2.32 0 0 1-.915-.941 2.286 2.286 0 0 1-.255-1.281c.042-.44.213-.854.491-1.19l16.375-19.608a2.132 2.132 0 0 1 1.499-.765c.29-.021.582.016.861.11a2.288 2.288 0 0 1 1.312 1.12 2.269 2.269 0 0 1 .166 1.707 2.154 2.154 0 0 1-.409.758L94.997 88.67c-.37.445-.904.72-1.484.765zM101.485 96.702a2.247 2.247 0 0 1-1.267-.282 2.312 2.312 0 0 1-.916-.94 2.279 2.279 0 0 1-.254-1.282c.042-.44.214-.853.492-1.188L115.9 73.315a2.14 2.14 0 0 1 1.503-.81c.295-.026.593.008.878.1a2.304 2.304 0 0 1 1.583 1.992 2.181 2.181 0 0 1-.531 1.639l-16.36 19.7c-.372.444-.907.719-1.489.766zM109.081 103.735a2.2 2.2 0 0 1-.866-.103 2.321 2.321 0 0 1-1.574-1.959 2.207 2.207 0 0 1 .481-1.628l16.36-19.7a2.162 2.162 0 0 1 1.498-.767c.29-.022.582.016.861.108a2.303 2.303 0 0 1 1.567 1.96c.028.293 0 .587-.085.866a2.16 2.16 0 0 1-.407.759l-16.361 19.699a2.16 2.16 0 0 1-1.474.765zM117.869 112.258a2.24 2.24 0 0 1-1.27-.28 2.326 2.326 0 0 1-.918-.942 2.282 2.282 0 0 1-.254-1.284 2.19 2.19 0 0 1 .496-1.19l16.376-19.608a2.146 2.146 0 0 1 1.498-.765 2.257 2.257 0 0 1 1.626.54c.454.39.742.94.8 1.531a2.203 2.203 0 0 1-.494 1.624l-16.376 19.609c-.369.445-.902.72-1.484.765zM128.643 120.336a2.25 2.25 0 0 1-1.268-.282 2.32 2.32 0 0 1-.915-.94 2.283 2.283 0 0 1-.255-1.282c.042-.439.214-.853.492-1.188l16.375-19.613a2.147 2.147 0 0 1 1.499-.765 2.26 2.26 0 0 1 1.625.541c.455.389.743.94.8 1.53a2.2 2.2 0 0 1-.494 1.624l-16.375 19.613a2.152 2.152 0 0 1-1.484.762zM130.202 86.064a2.233 2.233 0 0 1-1.271-.283 2.306 2.306 0 0 1-1.165-2.232c.045-.44.221-.854.503-1.187l8.783-10.38a2.132 2.132 0 0 1 1.515-.825c.297-.025.598.01.885.104a2.309 2.309 0 0 1 1.576 2.028 2.24 2.24 0 0 1-.119.884c-.099.282-.254.54-.456.757l-8.777 10.38c-.37.438-.899.709-1.474.754z"/></g><defs><clipPath id="a"><path fill="#fff" d="M0 0h273v292H0z"/></clipPath></defs></svg>