<svg width="574" height="311" fill="none" xmlns="http://www.w3.org/2000/svg"><g clip-path="url(#a)"><mask id="b" style="mask-type:luminance" maskUnits="userSpaceOnUse" x="0" y="0" width="576" height="311"><path d="M576 0H0v311h576V0z" fill="#fff"/></mask><g opacity=".10" fill="#fff" mask="url(#b)"><path d="M439.929 59.262a1.004 1.004 0 0 1-.34-1.946c14.944-5.389 25.039-2.393 25.463-2.262a1.002 1.002 0 0 1 .172 1.84 1.015 1.015 0 0 1-.763.078c-.099-.032-9.924-2.92-24.189 2.23a.985.985 0 0 1-.343.06z"/><path d="M331.984 96.803c-2.535 0-3.531-.38-3.64-.417a1.004 1.004 0 0 1 .771-1.853c.054.02 7.548 2.541 36.352-8.12 16.993-6.275 28.266-13.943 37.323-20.104 6.717-4.569 12.021-8.178 17.215-9.421 9.694-2.353 19.724.225 23.501 1.193.522.134 1.059.271 1.254.305a1.02 1.02 0 0 1 1.003.663 1.005 1.005 0 0 1-.606 1.283c-.399.142-.702.065-2.159-.309-3.645-.934-13.322-3.421-22.529-1.185-4.839 1.158-10.012 4.676-16.557 9.13-9.146 6.223-20.532 13.967-37.756 20.327-19.454 7.198-29.461 8.508-34.172 8.508z"/><path d="M297.786 123.9h-.015a1.008 1.008 0 0 1-.919-.633.993.993 0 0 1-.071-.385l.597-38.594a1 1 0 0 1 .602-.903l11.649-5.1a.995.995 0 0 1 1.06.16c1.128.974 27.681 23.901 30.431 26.834a.996.996 0 0 1 .317.732c0 .137-.028.273-.082.399a1.013 1.013 0 0 1-.583.545 1.007 1.007 0 0 1-1.115-.305c-2.48-2.646-26.115-23.092-29.8-26.274l-10.481 4.59-.587 37.954a1.004 1.004 0 0 1-1.003.98z"/><path d="M286.009 142.999a1.002 1.002 0 0 1-.468-.114l-5.57-2.921a1.001 1.001 0 0 1-.167-1.669l22.875-18.696a.992.992 0 0 1 .735-.222 1.01 1.01 0 0 1 .861.706 1.008 1.008 0 0 1-.324 1.066l-21.703 17.732 3.838 2.018 15.128-5.445c10.402-8.762 26.017-21.949 26.773-22.74a1.023 1.023 0 0 1 1.404-.069.986.986 0 0 1 .121 1.375c-.606.737-20.927 17.852-27.14 23.08a.976.976 0 0 1-.306.177l-15.716 5.658a.996.996 0 0 1-.341.064z"/><path d="M278.768 126.669a.995.995 0 0 1-.862-.487.99.99 0 0 1-.024-.988l3.303-6.18c.123-.231.333-.405.583-.484l15.316-4.854a1.005 1.005 0 0 1 1.196 1.418 1.008 1.008 0 0 1-.588.495l-14.927 4.729-2.217 4.158 17.848-1.877a1.006 1.006 0 0 1 1.104.893 1.002 1.002 0 0 1-.895 1.103l-19.733 2.086a.894.894 0 0 1-.104-.012zM413.752 87.91a1.008 1.008 0 0 1-.891-1.447 1.01 1.01 0 0 1 .473-.464c.355-.165 35.757-16.748 50.742-30.722a1.006 1.006 0 0 1 1.631 1.144c-.064.122-.153.23-.26.317-15.218 14.186-50.903 30.904-51.263 31.071a.998.998 0 0 1-.432.1z"/><path d="M367.247 111.583a1.005 1.005 0 0 1-.894-1.461c.105-.204.278-.367.489-.46 13.297-5.854 39.243-17.524 42.253-19.75 2.971-2.224 7.743-13.437 9.331-17.568a1 1 0 0 1 .529-.558 1.012 1.012 0 0 1 1.102.187 1.009 1.009 0 0 1 .315.703 1.02 1.02 0 0 1-.066.386c-.604 1.575-6.025 15.482-10.003 18.459-3.947 2.92-41.067 19.282-42.645 19.977a.983.983 0 0 1-.411.085z"/><path d="M336.185 128.991c-2.54 0-5.85-.04-8.221-.075a1.059 1.059 0 0 1-.209-.027l-12.694-3.009a1.004 1.004 0 0 1 .462-1.952l12.583 2.983c4.097.06 10.73.115 11.424.019.656-.161 8.524-3.015 13.46-4.826l32.435-29.916c.589-.548 4.573-2.311 16.247-7.32 6.195-2.66 13.217-5.67 13.931-6.165a1.008 1.008 0 0 1 1.401.241 1.005 1.005 0 0 1-.241 1.399c-.801.565-5.955 2.787-14.297 6.367-6.643 2.852-14.908 6.398-15.715 6.983l-32.547 30.022a.984.984 0 0 1-.334.208c-3.97 1.461-13.285 4.859-13.975 4.982-.28.063-1.769.086-3.71.086z"/><path d="M363.188 118.645a1.002 1.002 0 0 1-.765-.352 1.003 1.003 0 0 1-.088-1.179l5.213-8.386a1.004 1.004 0 1 1 1.707 1.055l-3.552 5.725 41.537-17.316-1.588-4.397a1.011 1.011 0 0 1-.024-.814 1.005 1.005 0 0 1 1.905.134l1.911 5.297a1.002 1.002 0 0 1-.56 1.264l-45.314 18.901a.982.982 0 0 1-.382.068zM375.081 84.58a1.006 1.006 0 0 1-.793-1.61c.152-.2.372-.335.618-.38 41.464-7.48 86.797-25.364 87.25-25.544a1.007 1.007 0 0 1 1.304.562 1.004 1.004 0 0 1-.562 1.302c-.455.181-45.962 18.139-87.637 25.66-.06.008-.12.012-.18.01zM233.098 149.339a1.005 1.005 0 0 1-1.004-1.003c0-4.974 3.823-9.805 9.512-12.009 5.688-2.203 11.72-1.195 15.042 2.504a1.005 1.005 0 1 1-1.5 1.335c-2.716-3.037-7.985-3.857-12.809-1.98-4.824 1.878-8.232 6.05-8.232 10.139a.991.991 0 0 1-.292.718 1.002 1.002 0 0 1-.717.296z"/><path d="M253.386 145.086h-.018a1.016 1.016 0 0 1-.705-.307.993.993 0 0 1-.281-.715c.05-2.483 1.953-4.882 4.738-5.971 2.785-1.089 5.824-.588 7.521 1.264a.998.998 0 0 1 .165 1.101 1.01 1.01 0 0 1-1.651.247c-1.111-1.219-3.29-1.525-5.296-.743-2.005.782-3.426 2.487-3.459 4.141a1.004 1.004 0 0 1-1.014.983zM227.807 153.23a1.003 1.003 0 0 1-1.005-1.001c0-1.798 1.356-3.547 3.372-4.381 2.062-.795 4.257-.394 5.469.989a.993.993 0 0 1 .267.734.998.998 0 0 1-.687.901 1.004 1.004 0 0 1-1.09-.313c-.652-.742-1.977-.926-3.22-.448-1.243.478-2.102 1.539-2.102 2.516a.995.995 0 0 1-1.004 1.003z"/><path d="M214.003 161.737a1.004 1.004 0 0 1-1.005-1.003c0-3.668 2.798-7.22 6.966-8.839 4.203-1.617 8.661-.864 11.102 1.877a1.011 1.011 0 0 1 .163 1.112 1.02 1.02 0 0 1-.579.514 1.006 1.006 0 0 1-1.087-.293c-1.855-2.086-5.509-2.628-8.874-1.335-3.366 1.294-5.681 4.173-5.681 6.968a1.005 1.005 0 0 1-1.005.999zM269.899 143.682h-.069a1.016 1.016 0 0 1-.689-.339 1.003 1.003 0 0 1-.247-.727c.107-1.63 1.39-3.13 3.189-3.735 1.798-.605 3.67-.166 4.681 1.083a.996.996 0 0 1 .16 1.154.991.991 0 0 1-.262.317.999.999 0 0 1-1.164.067.997.997 0 0 1-.296-.286c-.393-.484-1.335-.835-2.478-.44-1.02.342-1.77 1.149-1.826 1.963a.997.997 0 0 1-.999.943z"/><path d="M257.845 150.382h-.075a1.004 1.004 0 0 1-.928-1.074c.234-3.179 2.825-6.144 6.447-7.377 3.623-1.233 7.467-.365 9.401 2.099a1.001 1.001 0 0 1-.181 1.401 1.006 1.006 0 0 1-1.404-.168c-1.406-1.798-4.35-2.389-7.16-1.433-2.81.955-4.916 3.275-5.089 5.632a1.007 1.007 0 0 1-1.011.92zM243.72 151.265a.99.99 0 0 1-.384-.077.995.995 0 0 1-.619-.927c0-1.773 1.299-3.456 3.234-4.187 1.935-.73 4.022-.35 5.196.948a1.006 1.006 0 0 1 .285.731 1.004 1.004 0 0 1-1.773.616c-.626-.682-1.851-.853-2.996-.417-1.274.482-1.938 1.527-1.938 2.312a1.008 1.008 0 0 1-1.005 1.001z"/><path d="M230.631 159.33a1.003 1.003 0 0 1-1.005-1.003c0-3.52 2.674-6.914 6.652-8.439 3.89-1.51 8.223-.776 10.536 1.79a.991.991 0 0 1 .276.731.996.996 0 0 1-.332.707 1.007 1.007 0 0 1-1.124.15.992.992 0 0 1-.314-.247c-1.763-1.956-5.181-2.474-8.317-1.251-3.136 1.222-5.367 3.913-5.367 6.567a1 1 0 0 1-1.005.995zM217.741 162.42a1.01 1.01 0 0 1-.995-.863 1 1 0 0 1 .715-1.105c.262-.075.597-.187 1.007-.338a1.007 1.007 0 0 1 1.224.615 1.006 1.006 0 0 1-.528 1.263c-.464.171-.836.298-1.141.384a1.043 1.043 0 0 1-.282.044zm3.104-1.125a1.003 1.003 0 0 1-.353-1.942l1.507-.559a206.258 206.258 0 0 0 4.117-1.556.996.996 0 0 1 .768.005.985.985 0 0 1 .324.22.994.994 0 0 1-.01 1.416.989.989 0 0 1-.327.215c-.771.315-2.451.939-4.179 1.579l-1.502.56a.999.999 0 0 1-.351.062h.006zM352.648 137.423a1.006 1.006 0 0 1-.982-.773 1.006 1.006 0 0 1 .532-1.129l13.764-6.86a1.02 1.02 0 0 1 .384-.121.992.992 0 0 1 .754.234.998.998 0 0 1 .296 1.104 1.011 1.011 0 0 1-.538.577l-13.763 6.862a1.006 1.006 0 0 1-.447.106zM249.012 121.736a1.008 1.008 0 0 1-.979-.772 1.002 1.002 0 0 1 .527-1.129l13.766-6.901a1.008 1.008 0 0 1 1.35.446 1.006 1.006 0 0 1-.447 1.348l-13.768 6.899a1.001 1.001 0 0 1-.449.109zM102.56 166.911a3.651 3.651 0 0 1-.871-.108 3.414 3.414 0 0 1-2.142-1.603.992.992 0 0 1-.077-.171 3.441 3.441 0 0 1-.263-2.489 3.379 3.379 0 0 1 1.655-2.167 3.287 3.287 0 0 1 2.592-.369 3.536 3.536 0 0 1 2.143 1.635c.47.806.601 1.766.364 2.668a3.736 3.736 0 0 1-1.293 1.93l-.035.023-.239.161a3.837 3.837 0 0 1-1.834.49zm-1.193-2.593c.199.27.488.461.815.538a1.65 1.65 0 0 0 1.189-.15l.119-.084c.264-.221.455-.517.549-.849a1.546 1.546 0 0 0-.152-1.101 1.573 1.573 0 0 0-.961-.734 1.309 1.309 0 0 0-1.045.158 1.414 1.414 0 0 0-.727.926c-.11.369-.071.766.111 1.106.04.061.073.126.098.194l.004-.004zM374.01 252.74c-3.12 0-4.693-2.448-6.082-4.607-1.272-1.977-2.369-3.684-4.387-3.701-1.881 0-2.848 1.379-4.223 3.649-1.299 2.147-2.77 4.577-5.874 4.577h-.048c-3.134 0-4.699-2.439-6.088-4.589-1.27-1.972-2.367-3.674-4.406-3.674h-.03c-1.88 0-2.83 1.37-4.178 3.621-1.304 2.158-2.779 4.605-5.929 4.605-3.151 0-4.713-2.447-6.1-4.607-1.273-1.975-2.372-3.684-4.411-3.698a1.006 1.006 0 0 1-.996-1.012 1.04 1.04 0 0 1 1.013-.995c3.134.025 4.696 2.465 6.084 4.62 1.27 1.978 2.369 3.685 4.41 3.685 1.88 0 2.843-1.373 4.208-3.634 1.297-2.151 2.768-4.59 5.897-4.59h.048c3.134 0 4.699 2.439 6.088 4.59 1.27 1.969 2.369 3.671 4.406 3.671h.03c1.846 0 2.807-1.364 4.165-3.607 1.31-2.165 2.796-4.616 5.95-4.616 3.115.025 4.686 2.465 6.072 4.62 1.272 1.976 2.371 3.685 4.387 3.685 1.88 0 2.854-1.373 4.228-3.639 1.308-2.151 2.789-4.589 5.917-4.589h.048a1.005 1.005 0 0 1 .711 1.713 1.01 1.01 0 0 1-.711.294h-.04c-1.861 0-2.828 1.37-4.199 3.621-1.327 2.162-2.812 4.607-5.96 4.607zM419.123 221.925c-1.236 0-4.266-.04-6.819-.082a.998.998 0 0 1-.988-1.02.974.974 0 0 1 1.022-.987c2.538.042 5.555.082 6.785.082a1.003 1.003 0 1 1 0 2.007zM389.486 219.436h-1.274a1.008 1.008 0 0 1-1.005-1.004 1.003 1.003 0 0 1 1.005-1.003h1.274a1.003 1.003 0 1 1 0 2.007zM402.416 217.149a1.005 1.005 0 0 1-.963-.716 9.231 9.231 0 0 0-3.327-4.815 9.256 9.256 0 0 0-14.441 4.815 1.003 1.003 0 0 1-.481.619 1.004 1.004 0 0 1-1.444-1.195c1.427-4.767 5.863-8.096 10.789-8.096a11.4 11.4 0 0 1 10.828 8.096 1.013 1.013 0 0 1-.077.766 1.013 1.013 0 0 1-.598.486c-.093.026-.189.04-.286.04z"/><path d="M410.173 219.398a1.009 1.009 0 0 1-.961-.707 3.4 3.4 0 0 0-6.514 0 1.002 1.002 0 0 1-1.247.635 1.005 1.005 0 0 1-.673-1.226 5.411 5.411 0 0 1 10.354 0 1.005 1.005 0 0 1-.072.764.99.99 0 0 1-.592.488.923.923 0 0 1-.295.046zM297.587 310.998h-74.554c-16.609 0-19.919-1.694-29.74-6.728l-17.371-8.837c-2.574-1.278-5.014-2.486-6.615-4.416a16.117 16.117 0 0 1-4.767-11.434c0-8.896 7.178-16.131 16.003-16.131H419.8c8.823 0 16.001 7.235 16.001 16.131a16.16 16.16 0 0 1-2.911 9.259 16.194 16.194 0 0 1-7.696 5.928 46.73 46.73 0 0 0-1.067.542l-17.131 8.727c-9.763 4.967-13.054 6.638-29.602 6.638h-79.069a.991.991 0 0 1-.738.321zm-117.042-45.541c-7.717 0-13.998 6.338-13.998 14.126a14.21 14.21 0 0 0 1.107 5.461 14.208 14.208 0 0 0 3.126 4.615c1.406 1.681 3.654 2.795 6.034 3.976l.996.499 16.396 8.344c9.755 5.007 12.698 6.509 28.831 6.509h73.817a1.008 1.008 0 0 1 .737-.323h79.807c16.066 0 18.993-1.488 28.691-6.419l17.131-8.721c.397-.208.811-.417 1.222-.611a14.224 14.224 0 0 0 6.79-5.194 14.19 14.19 0 0 0 2.578-8.143c0-7.787-6.278-14.125-13.997-14.125l-239.268.006z"/><path d="M259.071 308.429c-11.085 0-20.102-9.089-20.102-20.261 0-11.171 9.017-20.263 20.102-20.263s20.1 9.09 20.1 20.263c0 11.174-9.011 20.261-20.1 20.261zm0-38.517c-9.978 0-18.092 8.188-18.092 18.256s8.114 18.254 18.092 18.254c9.978 0 18.09-8.188 18.09-18.254 0-10.065-8.108-18.256-18.09-18.256z"/><path d="M259.071 294.267a6.108 6.108 0 0 1-6.047-7.26 6.1 6.1 0 0 1 4.788-4.819 6.11 6.11 0 0 1 6.286 2.587 6.097 6.097 0 0 1 1.032 3.394 6.077 6.077 0 0 1-1.767 4.3 6.094 6.094 0 0 1-4.292 1.798zm0-10.191a4.096 4.096 0 0 0-4.079 4.859 4.1 4.1 0 0 0 8.126-.766 4.07 4.07 0 0 0-1.174-2.885 4.083 4.083 0 0 0-2.873-1.214v.006z"/><path d="M259.071 292.099a3.933 3.933 0 0 1-2.823-6.703 3.945 3.945 0 0 1 4.296-.865 3.933 3.933 0 0 1 2.436 3.638 3.942 3.942 0 0 1-3.909 3.93zm0-5.858a1.936 1.936 0 0 0-1.806 1.168 1.932 1.932 0 0 0 .399 2.111 1.926 1.926 0 0 0 2.107.433 1.93 1.93 0 0 0 1.199-1.784 1.931 1.931 0 0 0-1.899-1.928zM214.122 308.429c-11.106 0-20.141-9.089-20.141-20.261 0-11.171 9.035-20.263 20.141-20.263 11.106 0 20.1 9.09 20.1 20.263 0 11.174-9.017 20.261-20.1 20.261zm0-38.517c-9.998 0-18.132 8.188-18.132 18.256s8.134 18.254 18.132 18.254c9.999 0 18.091-8.188 18.091-18.254 0-10.065-8.115-18.256-18.091-18.256z"/><path d="M214.122 294.267a6.108 6.108 0 0 1-6.047-7.26 6.108 6.108 0 0 1 4.788-4.819 6.107 6.107 0 0 1 7.318 5.981 6.077 6.077 0 0 1-1.767 4.3 6.094 6.094 0 0 1-4.292 1.798zm0-10.191a4.102 4.102 0 0 0-3.824 2.49 4.09 4.09 0 0 0 2.953 5.613 4.098 4.098 0 0 0 4.918-4.01 4.07 4.07 0 0 0-4.047-4.099v.006z"/><path d="M214.122 292.099a3.933 3.933 0 0 1-2.823-6.703 3.938 3.938 0 0 1 4.296-.865 3.942 3.942 0 0 1 1.771 1.449 3.926 3.926 0 0 1-.48 4.956 3.946 3.946 0 0 1-2.764 1.163zm0-5.858a1.936 1.936 0 0 0-1.805 1.168 1.924 1.924 0 0 0 .398 2.111 1.93 1.93 0 0 0 3.306-1.351 1.931 1.931 0 0 0-1.899-1.928zM345.684 308.429c-11.072 0-20.1-9.089-20.1-20.261 0-11.171 9.017-20.263 20.1-20.263 11.084 0 20.1 9.09 20.1 20.263 0 11.174-9.016 20.261-20.1 20.261zm0-38.517c-9.975 0-18.09 8.188-18.09 18.256s8.115 18.254 18.09 18.254c9.976 0 18.091-8.188 18.091-18.254 0-10.065-8.115-18.256-18.091-18.256z"/><path d="M345.684 294.267a6.108 6.108 0 0 1-6.047-7.26 6.108 6.108 0 0 1 4.788-4.819 6.107 6.107 0 0 1 7.318 5.981 6.073 6.073 0 0 1-1.767 4.3 6.092 6.092 0 0 1-4.292 1.798zm0-10.191a4.099 4.099 0 0 0-4.076 4.861 4.099 4.099 0 0 0 8.125-.768 4.072 4.072 0 0 0-1.175-2.886 4.085 4.085 0 0 0-2.874-1.213v.006z"/><path d="M345.684 292.099a3.94 3.94 0 0 1-3.895-4.682 3.931 3.931 0 0 1 3.088-3.105 3.944 3.944 0 0 1 4.052 1.668c.433.648.665 1.41.664 2.189a3.938 3.938 0 0 1-3.909 3.93zm0-5.858a1.93 1.93 0 0 0-1.928 2.284 1.93 1.93 0 0 0 3.827-.356 1.931 1.931 0 0 0-1.899-1.928zM303.038 307.95c-11.085 0-20.102-9.092-20.102-20.263 0-11.172 9.017-20.305 20.102-20.305s20.1 9.108 20.1 20.305c0 11.196-9.017 20.263-20.1 20.263zm0-38.561c-9.978 0-18.092 8.207-18.092 18.298 0 10.091 8.114 18.256 18.092 18.256 9.978 0 18.09-8.191 18.09-18.256 0-10.066-8.114-18.298-18.09-18.298z"/><path d="M303.038 293.785a6.105 6.105 0 0 1-5.68-3.731 6.096 6.096 0 0 1 4.421-8.348 6.113 6.113 0 0 1 6.285 2.586 6.093 6.093 0 0 1 1.033 3.395 6.08 6.08 0 0 1-1.767 4.3 6.098 6.098 0 0 1-4.292 1.798zm0-10.191a4.1 4.1 0 0 0-3.824 2.49 4.092 4.092 0 0 0 2.953 5.613 4.107 4.107 0 0 0 4.223-1.731 4.085 4.085 0 0 0 .695-2.279 4.074 4.074 0 0 0-4.047-4.093z"/><path d="M303.038 291.617a3.958 3.958 0 0 1-3.692-2.41 3.95 3.95 0 0 1 2.867-5.415 3.96 3.96 0 0 1 4.734 3.895 3.915 3.915 0 0 1-1.14 2.772 3.928 3.928 0 0 1-2.769 1.158zm0-5.896a1.945 1.945 0 0 0 0 3.891 1.948 1.948 0 0 0 1.885-1.945 1.945 1.945 0 0 0-1.885-1.946zM383.716 308.43c-10.513 0-19.066-8.604-19.066-19.178 0-10.575 8.553-19.179 19.066-19.179 10.513 0 19.026 8.604 19.026 19.179 0 10.574-8.534 19.178-19.026 19.178zm0-36.352c-9.401 0-17.056 7.704-17.056 17.174 0 9.469 7.652 17.171 17.056 17.171 9.403 0 17.018-7.702 17.018-17.171 0-9.47-7.633-17.174-17.018-17.174z"/><path d="M383.716 295.07a5.83 5.83 0 0 1-5.417-3.558 5.81 5.81 0 0 1 1.232-6.357 5.824 5.824 0 0 1 6.355-1.283 5.82 5.82 0 0 1 3.609 5.38 5.795 5.795 0 0 1-1.685 4.103 5.815 5.815 0 0 1-4.094 1.715zm0-9.632a3.822 3.822 0 0 0-3.57 2.313 3.807 3.807 0 0 0 .79 4.176 3.823 3.823 0 0 0 5.892-.551 3.802 3.802 0 0 0 .648-2.124 3.792 3.792 0 0 0-1.092-2.682 3.808 3.808 0 0 0-2.668-1.132z"/><path d="M383.716 293.021a3.778 3.778 0 0 1-3.502-2.317 3.77 3.77 0 0 1 2.743-5.153 3.778 3.778 0 0 1 3.883 1.603 3.766 3.766 0 0 1-.467 4.755 3.785 3.785 0 0 1-2.657 1.112zm0-5.535a1.77 1.77 0 0 0-1.768 1.765 1.766 1.766 0 0 0 1.768 1.765 1.765 1.765 0 1 0 0-3.53zM418.248 295.27c-7.924 0-14.371-6.499-14.371-14.485s6.447-14.486 14.371-14.486 14.371 6.498 14.371 14.486-6.447 14.485-14.371 14.485zm0-26.964c-6.817 0-12.362 5.597-12.362 12.479 0 6.883 5.545 12.478 12.362 12.478s12.362-5.597 12.362-12.478c0-6.88-5.545-12.479-12.362-12.479z"/><path d="M418.248 285.359a4.59 4.59 0 0 1-4.258-2.8 4.572 4.572 0 0 1 3.317-6.26 4.582 4.582 0 0 1 5.487 4.487 4.568 4.568 0 0 1-4.546 4.573zm0-7.141a2.571 2.571 0 0 0-2.562 3.047 2.569 2.569 0 0 0 3.502 1.897 2.576 2.576 0 0 0 1.596-2.376 2.553 2.553 0 0 0-2.536-2.558v-.01z"/><path d="M418.248 283.835a3.047 3.047 0 0 1-2.16-5.206 3.058 3.058 0 0 1 4.32 0 3.045 3.045 0 0 1 0 4.313 3.057 3.057 0 0 1-2.16.893zm0-4.095a1.045 1.045 0 0 0-1.045 1.043 1.043 1.043 0 0 0 1.045 1.043 1.043 1.043 0 1 0 0-2.086zM181.063 294.709c-7.596 0-13.776-6.246-13.776-13.923 0-7.678 6.18-13.926 13.776-13.926s13.814 6.259 13.814 13.926c0 7.666-6.197 13.923-13.814 13.923zm0-25.842c-6.489 0-11.766 5.347-11.766 11.919 0 6.571 5.277 11.916 11.766 11.916s11.804-5.347 11.804-11.916c0-6.57-5.296-11.919-11.804-11.919z"/><path d="M181.063 285.2a4.419 4.419 0 0 1-4.331-5.278 4.42 4.42 0 0 1 6.028-3.214 4.415 4.415 0 0 1-.002 8.16 4.421 4.421 0 0 1-1.695.332zm0-6.822a2.414 2.414 0 0 0-2.224 1.489 2.408 2.408 0 0 0 .525 2.622 2.409 2.409 0 0 0 2.627.52 2.406 2.406 0 0 0 1.487-2.224 2.38 2.38 0 0 0-.703-1.708 2.398 2.398 0 0 0-1.712-.699z"/><path d="M181.063 283.755a2.979 2.979 0 0 1-2.735-1.847 2.964 2.964 0 0 1 .658-3.232 2.98 2.98 0 0 1 4.572.461 2.97 2.97 0 0 1-2.495 4.618zm0-3.933a.964.964 0 1 0 .09 1.926.964.964 0 0 0-.09-1.926zM161.609 275.85a1.008 1.008 0 0 1-1.005-1.004c0-9.179 7.41-16.65 16.519-16.65h243.711c.168 0 .334.042.481.123l13.406 7.302a1.007 1.007 0 0 1 .513.597 1 1 0 0 1-.335 1.09 1.01 1.01 0 0 1-1.139.074l-13.183-7.181H177.123c-8.002 0-14.509 6.57-14.509 14.645a1.004 1.004 0 0 1-1.005 1.004z"/><path d="M196.22 258.558a1.009 1.009 0 0 1-.98-.769 1.002 1.002 0 0 1 .523-1.13l36.84-18.736a.977.977 0 0 1 .456-.11h71.847c.727-1.394 2.845-4.59 7.166-5.089 4.892-.602 64.806-.225 67.355-.208.067 0 4.258-.372 11.802 5.086 7.222 5.268 27.336 18.703 27.537 18.838a1.012 1.012 0 0 1 .441.64 1.01 1.01 0 0 1-.148.762 1.022 1.022 0 0 1-.648.428 1.001 1.001 0 0 1-.761-.161c-.208-.135-20.35-13.593-27.602-18.882-6.817-4.932-10.504-4.717-10.538-4.706-.72 0-62.426-.39-67.2.196-4.214.484-5.766 4.304-5.831 4.466a1.013 1.013 0 0 1-.936.639h-72.242l-36.625 18.627a1.004 1.004 0 0 1-.456.109zM299.534 232.595c-.087 0-.174-.011-.259-.033l-61.025-16.294a13.003 13.003 0 0 1-7.834-5.878 7.133 7.133 0 0 1-.963-.18l-16.864-4.493a7.072 7.072 0 0 1-4.257-3.28 7.046 7.046 0 0 1-.711-5.322c.2-.74.516-1.444.936-2.086l-80.81-21.569a6.865 6.865 0 0 1-5.864 1.114l-8.472-2.247a9.112 9.112 0 0 1-1.698-.692 1 1 0 0 1-.323-1.478c.115-.154.271-.271.45-.34a6.025 6.025 0 0 0 3.761-4.172 6.133 6.133 0 0 0-1.233-5.53 1.001 1.001 0 0 1 .235-1.488c.161-.102.347-.156.538-.156.6.007 1.197.083 1.78.225l8.547 2.295a7.011 7.011 0 0 1 4.682 4.147l103.763 27.663a13.133 13.133 0 0 1 11.056-2.122l9.429 2.504 1.157-4.446a4.181 4.181 0 0 1 1.939-2.599 4.307 4.307 0 0 1 4.833.256 4.29 4.29 0 0 1 1.535 4.584l-1.16 4.447 14.944 3.977a7.12 7.12 0 0 1 7.266-2.391l11.535 3.048a7.171 7.171 0 0 1 5.156 5.712l12.589 3.356a1.01 1.01 0 0 1 .731.797l2.785 16.01a.999.999 0 0 1-.369.958 1.01 1.01 0 0 1-1.02.135 12.613 12.613 0 0 0-5.052-1.043c-4.416 0-8.484 2.295-10.884 6.11a1.005 1.005 0 0 1-.849.501zm-172.019-61.227a.979.979 0 0 1 .259.033l82.826 22.113a1.005 1.005 0 0 1 .703 1.263 1 1 0 0 1-.285.448 5.102 5.102 0 0 0-1.463 2.412 5.04 5.04 0 0 0 .51 3.803 5.051 5.051 0 0 0 3.042 2.345l16.868 4.495c.376.09.759.146 1.145.169a1.024 1.024 0 0 1 .792.518 11.027 11.027 0 0 0 6.859 5.372l60.327 16.105a14.766 14.766 0 0 1 16.341-5.841l-2.379-13.673-12.623-3.365a.996.996 0 0 1-.518-.333.996.996 0 0 1-.226-.573 5.156 5.156 0 0 0-3.76-4.633l-11.526-3.046a5.095 5.095 0 0 0-5.505 2.147 1.001 1.001 0 0 1-1.099.417l-16.59-4.414a1.007 1.007 0 0 1-.654-.554.997.997 0 0 1 .012-.856l1.362-5.228a2.37 2.37 0 0 0-1.644-2.871 2.304 2.304 0 0 0-1.751.267 2.227 2.227 0 0 0-1.025 1.373l-1.396 5.349a1.11 1.11 0 0 1-1.27.795l-10.383-2.769a11.114 11.114 0 0 0-9.696 2.061.974.974 0 0 1-.886.186l-104.758-27.924a1.004 1.004 0 0 1-.7-.665 5.011 5.011 0 0 0-3.47-3.338l-7.811-2.101a8.02 8.02 0 0 1 .396 5.324 7.925 7.925 0 0 1-2.924 4.404l7.794 2.068a4.874 4.874 0 0 0 4.454-1.044 1.01 1.01 0 0 1 .652-.239z"/><path d="M109.663 170.164c-.194 0-.388-.024-.576-.071-.585-.156-1.609-.686-2.044-2.503a.949.949 0 0 1-.025-.167 8.736 8.736 0 0 1 .232-3.774 9.009 9.009 0 0 1 1.709-3.476c1.279-1.437 2.463-1.399 3.046-1.251.759.237 1.672.87 2.014 2.624.332 1.339.09 2.821-.173 3.82a9.363 9.363 0 0 1-1.387 3.096.984.984 0 0 1-.103.121l-.317.323c-.673.805-1.525 1.258-2.376 1.258zm-.643-2.956c.154.586.397.895.572.943.245.06.61-.175.959-.597l.314-.321a7.496 7.496 0 0 0 1.044-2.374c.29-1.099.347-2.12.159-2.879-.132-.647-.351-1.043-.602-1.131-.179-.048-.587.196-.973.626a6.965 6.965 0 0 0-1.291 2.675 6.822 6.822 0 0 0-.189 2.966c-.002.034.003.063.007.092zM84.51 248.604a2.58 2.58 0 0 1-1.829-.82c-.453-.396-.729-1.076-.729-1.877a2.518 2.518 0 0 1 .817-1.878 2.469 2.469 0 0 1 1.95-.69c.52-.052 1.15.256 1.687.73.05.045.097.093.138.146l.107.142a2.5 2.5 0 0 1 .533 1.625 2.606 2.606 0 0 1-.77 1.878c-.52.474-1.2.739-1.905.744zm.037-3.254a.506.506 0 0 0-.397.148.567.567 0 0 0-.188.417.649.649 0 0 0 .098.418c.113.14.272.236.45.269a.823.823 0 0 0 .526-.19.6.6 0 0 0 .14-.417.584.584 0 0 0-.082-.355l-.035-.044-.05-.069a.738.738 0 0 0-.38-.173.554.554 0 0 0-.082-.002v-.002zM87.213 178.3a2.44 2.44 0 0 1-2.476-2.447 2.46 2.46 0 0 1 4.194-1.735 2.452 2.452 0 0 1 .007 3.461 2.45 2.45 0 0 1-1.725.721zm0-2.921a.47.47 0 0 0-.434.298.465.465 0 0 0-.032.182.434.434 0 0 0 .136.323.445.445 0 0 0 .33.119.435.435 0 0 0 .307-.131.431.431 0 0 0 .121-.311.468.468 0 0 0-.428-.48zM485.482 51.076a1.005 1.005 0 0 1-.905-1.399c.087-.202.239-.37.431-.478l2.705-1.444a1.007 1.007 0 0 1 1.409 1.176c-.071.25-.237.463-.462.593l-2.716 1.444a.994.994 0 0 1-.462.108zm8.315-4.38a1.005 1.005 0 0 1-.915-1.414c.092-.204.249-.372.447-.477l12.85-6.742a7.504 7.504 0 0 0 1.361-12.409 7.43 7.43 0 0 0-2.572-1.395 7.265 7.265 0 0 0-5.601.5l-1.448.732a1.008 1.008 0 0 1-1.322-.456 1.003 1.003 0 0 1 .415-1.334l1.431-.723a9.267 9.267 0 0 1 7.124-.626 9.422 9.422 0 0 1 5.599 4.677c2.413 4.688.596 10.43-4.053 12.83l-12.842 6.738c-.147.074-.31.11-.474.107v-.009zM478.68 35.42a1.007 1.007 0 0 1-.977-.763 1.003 1.003 0 0 1 .509-1.13l13.088-6.859a1.008 1.008 0 0 1 1.322.44 1.002 1.002 0 0 1-.388 1.336l-13.089 6.87a1.008 1.008 0 0 1-.465.114v-.008z"/><path d="M502.16 36.44a4.869 4.869 0 0 1-4.262-2.504 4.858 4.858 0 0 1 .134-4.936 4.827 4.827 0 0 1 3.004-2.206 4.824 4.824 0 0 1 3.681.594 4.935 4.935 0 0 1 1.598 6.745 4.865 4.865 0 0 1-4.155 2.307zm.017-7.778c-.221 0-.44.027-.654.08a2.814 2.814 0 0 0-1.774 1.297 2.89 2.89 0 0 0 .911 3.964 2.872 2.872 0 0 0 3.942-.922 2.917 2.917 0 0 0-.944-3.995 2.776 2.776 0 0 0-1.481-.415v-.009zM120.433 276.011a.998.998 0 0 1-1.005-1.025l.025-1.122-1.347-.478a1.002 1.002 0 0 1 .123-1.925l1.222-.267-.023-1.02a.999.999 0 0 1 .664-.966 1.005 1.005 0 0 1 1.129.321l.875 1.104 1.406-.334a1.006 1.006 0 0 1 .986 1.64l-.71.807.737.907a1.006 1.006 0 0 1 .042 1.213.997.997 0 0 1-.519.376.995.995 0 0 1-.64-.014l-1.388-.492-.823.935a1.004 1.004 0 0 1-.754.34zM120.79 126.39a1.01 1.01 0 0 1-1.005-1.004v-1.118l-1.343-.453a1.005 1.005 0 0 1-.445-1.602c.143-.167.337-.283.552-.33l1.236-.269v-1.043a1.003 1.003 0 0 1 1.287-.968c.201.058.378.178.508.342l.836 1.071 1.414-.307a1.002 1.002 0 0 1 .969 1.64l-.683.778.717.909a1.003 1.003 0 0 1-.478 1.573 1.004 1.004 0 0 1-.632-.002l-1.393-.469-.792.903a.997.997 0 0 1-.748.349zM175.573 26.2a1.006 1.006 0 0 1-1.005-1.003v-1.139l-1.362-.484a1.003 1.003 0 0 1 .123-1.925l1.239-.27v-1.043a1.001 1.001 0 0 1 1.296-.962c.201.061.377.184.505.351l.835 1.09 1.396-.33a1.006 1.006 0 0 1 1.095.457.998.998 0 0 1-.109 1.18l-.712.808.737.907a.999.999 0 0 1 .039 1.21 1.005 1.005 0 0 1-1.154.367l-1.377-.49-.784.918a.998.998 0 0 1-.762.359zM500.041 108.775a4.389 4.389 0 0 1-4.081-2.676 4.377 4.377 0 0 1 3.171-5.998 4.393 4.393 0 0 1 4.516 1.855 4.377 4.377 0 0 1-.529 5.522 4.386 4.386 0 0 1-3.077 1.297zm0-6.742a2.371 2.371 0 0 0-2.375 2.368 2.353 2.353 0 0 0 2.357 2.353 2.353 2.353 0 0 0 2.356-2.353 2.385 2.385 0 0 0-2.338-2.368zM209.785 75.23a1.002 1.002 0 0 1-.725-1.696l2.348-2.447a1.002 1.002 0 0 1 .705-.309c.266-.004.523.097.716.28l2.386 2.295a1.003 1.003 0 0 1-.679 1.715 1.005 1.005 0 0 1-.712-.267l-1.672-1.592-1.652 1.72a.993.993 0 0 1-.715.301zM492.015 274.767a1 1 0 0 1-.988-1.183c.035-.194.127-.373.263-.515l2.346-2.447a1.02 1.02 0 0 1 .706-.31h.019c.262.002.514.103.702.284l2.348 2.296a1.001 1.001 0 0 1-.695 1.704 1.006 1.006 0 0 1-.709-.269l-1.621-1.58-1.646 1.716a1 1 0 0 1-.725.304zM149.832 160.568a1.003 1.003 0 0 1-.725-1.696l2.507-2.608a.987.987 0 0 1 .704-.309.952.952 0 0 1 .717.28l2.546 2.447a1 1 0 0 1-.681 1.713 1.008 1.008 0 0 1-.712-.268l-1.822-1.75-1.807 1.878a1.005 1.005 0 0 1-.727.313zM491.689 291.371h-.025c-2.256-.054-3.282-1.838-4.11-3.271-.798-1.388-1.343-2.241-2.415-2.266h-.048c-1.044 0-1.671.835-2.582 2.182-.942 1.383-2.168 3.102-4.32 3.073-2.269-.052-3.297-1.85-4.124-3.294-.798-1.398-1.344-2.257-2.413-2.282-1.07-.025-1.693.815-2.624 2.186-.932 1.371-2.09 3.071-4.239 3.073h-.096c-2.259-.054-3.287-1.853-4.112-3.296-.8-1.398-1.345-2.257-2.413-2.28-1.068-.023-1.694.813-2.626 2.186-.932 1.373-2.089 3.069-4.239 3.069h-.1a1.005 1.005 0 1 1 .05-2.007h.046c1.044 0 1.661-.835 2.58-2.189s2.089-3.07 4.237-3.07h.098c2.258.052 3.284 1.85 4.111 3.294.799 1.397 1.344 2.257 2.416 2.282h.046c1.044 0 1.66-.835 2.578-2.191.917-1.356 2.089-3.068 4.236-3.068h.101c2.256.056 3.284 1.85 4.109 3.294.8 1.4 1.346 2.259 2.413 2.295h.025c1.045 0 1.672-.835 2.597-2.197.926-1.362 2.102-3.046 4.341-3.059 2.257.053 3.283 1.838 4.11 3.27.798 1.389 1.343 2.24 2.415 2.265a1.016 1.016 0 0 1 .707.302 1.006 1.006 0 0 1-.016 1.419 1.01 1.01 0 0 1-.714.286v-.006zM429.705 134.895h-3.539a.998.998 0 0 1-.711-.294.995.995 0 0 1-.217-.326.994.994 0 0 1 0-.768.991.991 0 0 1 .543-.543c.122-.05.253-.076.385-.076h3.539a1.003 1.003 0 1 1 0 2.007zm-7.12 0h-2.716a.994.994 0 0 1-.384-.077.995.995 0 0 1-.544-.543.994.994 0 0 1 .218-1.093.998.998 0 0 1 .71-.294h2.716a1.003 1.003 0 1 1 0 2.007zm-6.882 0h-21.165a.998.998 0 0 1-.711-.294 1.014 1.014 0 0 1-.294-.71 1.011 1.011 0 0 1 .294-.709 1.009 1.009 0 0 1 .711-.294h21.165a1.003 1.003 0 1 1 0 2.007zM495.905 116.238h-2.267a1.008 1.008 0 0 1-.928-.619.994.994 0 0 1 0-.768.993.993 0 0 1 .544-.543.99.99 0 0 1 .384-.077h2.267a1.005 1.005 0 0 1 1.005 1.004 1 1 0 0 1-.295.709 1.001 1.001 0 0 1-.71.294zm-6.009 0h-3.856a1.016 1.016 0 0 1-.711-.294 1.01 1.01 0 0 1-.294-.709 1.011 1.011 0 0 1 .294-.71 1.006 1.006 0 0 1 .711-.294h3.856a.998.998 0 0 1 .711.294 1.011 1.011 0 0 1 .218 1.094 1.01 1.01 0 0 1-.929.619zm-7.558 0h-3.023a1.003 1.003 0 1 1 0-2.007h3.023c.132 0 .262.026.384.077a.995.995 0 0 1 .544.543.994.994 0 0 1-.218 1.093 1.011 1.011 0 0 1-.71.294zm-10.582 0h-9.468a1.003 1.003 0 1 1 0-2.007h9.462c.132 0 .262.026.384.077a.995.995 0 0 1 .544.543.994.994 0 0 1-.218 1.093 1.011 1.011 0 0 1-.71.294h.006zM31.835 187.498c-13.58 0-24.636-11.143-24.636-24.838 0-13.696 11.052-24.826 24.636-24.826S56.47 148.976 56.47 162.66c0 13.683-11.052 24.838-24.636 24.838zm0-47.668c-12.475 0-22.626 10.242-22.626 22.83 0 12.588 10.151 22.831 22.626 22.831 12.474 0 22.628-10.241 22.628-22.838 0-12.596-10.16-22.823-22.628-22.823z"/><path d="M9.932 172.667c-4.08 0-7.283-.521-8.84-1.762C.189 170.183 0 169.357 0 168.791c0-2.113 2.465-4.301 7.765-6.884a1.003 1.003 0 0 1 .88 1.804c-6.159 2.998-6.637 4.644-6.637 5.076 0 .084 0 .275.338.545 2.384 1.904 13.383 2.015 29.071-1.523 18.468-4.112 29.809-10.187 29.809-12.732 0-.718-2.044-1.803-7.676-1.847a1 1 0 0 1-.96-1.002 1.003 1.003 0 0 1 .96-1.002c6.416.048 9.669 1.345 9.669 3.851 0 5.007-16.169 11.309-31.38 14.701-7.51 1.698-15.719 2.889-21.907 2.889zM366.292 165.509a3.767 3.767 0 0 1-3.473-2.314 3.747 3.747 0 0 1 .808-4.09 3.763 3.763 0 0 1 6.426 2.632 3.75 3.75 0 0 1-3.761 3.772zm0-5.497a1.736 1.736 0 0 0-1.7 1.725 1.713 1.713 0 0 0 1.071 1.586 1.726 1.726 0 0 0 1.877-.386 1.716 1.716 0 0 0-.287-2.646 1.722 1.722 0 0 0-.961-.279zM32.313 183.244a5.948 5.948 0 0 1-5.565-3.598 5.931 5.931 0 0 1 1.227-6.506 5.954 5.954 0 0 1 9.18.857 5.933 5.933 0 0 1 1.008 3.31 5.915 5.915 0 0 1-1.703 4.169 5.932 5.932 0 0 1-4.147 1.768zm0-9.87a3.946 3.946 0 0 0-3.706 2.36 3.93 3.93 0 0 0 2.806 5.421 3.938 3.938 0 0 0 4.742-3.848c0-2.136-1.755-3.933-3.842-3.933zM33.665 149.982a3.764 3.764 0 0 1-2.66-1.1 3.751 3.751 0 0 1 0-5.31 3.76 3.76 0 0 1 5.319 0 3.751 3.751 0 0 1 0 5.31 3.765 3.765 0 0 1-2.66 1.1zm0-5.497a1.745 1.745 0 0 0 0 3.49 1.74 1.74 0 0 0 1.7-1.765 1.712 1.712 0 0 0-1.7-1.725z"/><path d="M44.964 156.844a3.343 3.343 0 0 1-3.122-3.331 3.337 3.337 0 0 1 3.122-3.33 3.337 3.337 0 0 1 0 6.661zm0-4.654a1.323 1.323 0 0 0-.904 2.241c.237.247.561.392.904.406a1.329 1.329 0 0 0 1.273-1.324 1.325 1.325 0 0 0-1.273-1.323zM477.566 157.726a1.006 1.006 0 0 1-.916-1.418 1 1 0 0 1 .452-.476l24.862-12.88a8.79 8.79 0 0 0 4.257-5.088 8.775 8.775 0 0 0-.516-6.61 8.622 8.622 0 0 0-5.016-4.248 8.642 8.642 0 0 0-6.558.516l-48.368 25.118a1.02 1.02 0 0 1-.783.092 1.008 1.008 0 0 1-.609-.5 1.007 1.007 0 0 1 .143-1.132c.09-.101.2-.182.323-.24l48.377-25.117a10.646 10.646 0 0 1 14.286 4.602c2.641 5.238.572 11.683-4.596 14.395l-24.862 12.882a.98.98 0 0 1-.476.104z"/><path d="M496.621 142.438a6.577 6.577 0 0 1-6.121-3.993 6.543 6.543 0 0 1-.408-3.794 6.547 6.547 0 0 1 1.775-3.379 6.58 6.58 0 0 1 7.163-1.469 6.559 6.559 0 0 1 4.087 6.055 6.557 6.557 0 0 1-1.891 4.625 6.576 6.576 0 0 1-4.605 1.955zm0-11.115a4.564 4.564 0 0 0-4.268 2.763 4.55 4.55 0 0 0 3.287 6.254 4.568 4.568 0 0 0 4.702-1.939 4.548 4.548 0 0 0 .765-2.543 4.528 4.528 0 0 0-1.31-3.188 4.54 4.54 0 0 0-3.176-1.347zM451.867 158.609a1.012 1.012 0 0 1-.609-.215 1.007 1.007 0 0 1 .129-1.663l5.051-2.729a1.01 1.01 0 0 1 1.362.405.989.989 0 0 1 .08.764 1.01 1.01 0 0 1-.485.596l-5.052 2.714a.992.992 0 0 1-.476.128zm8.553-4.615a1.005 1.005 0 0 1-.487-1.878l3.422-1.877a1.005 1.005 0 0 1 1.451 1.159 1.008 1.008 0 0 1-.481.599l-3.42 1.878a1 1 0 0 1-.485.119zm7.281-4.012a1.004 1.004 0 0 1-.493-1.877l19.254-10.794a1.002 1.002 0 0 1 1.334.401 1 1 0 0 1-.35 1.347l-19.248 10.794c-.152.085-.323.13-.497.129zM463.443 157.807a1.004 1.004 0 0 1-.487-1.877l3.939-2.168a.999.999 0 0 1 .765-.085 1.002 1.002 0 0 1 .206 1.844l-3.938 2.168a1.023 1.023 0 0 1-.485.118zm6.723-3.652a1.007 1.007 0 0 1-.916-1.397 1.01 1.01 0 0 1 .432-.481l2.716-1.485a.998.998 0 0 1 1.126.082.998.998 0 0 1 .338 1.077 1.015 1.015 0 0 1-.497.599l-2.706 1.486c-.151.08-.321.121-.493.119zm5.729-3.169a1.008 1.008 0 0 1-.923-1.396c.087-.204.239-.373.432-.482l11.258-6.3a.986.986 0 0 1 .373-.121.988.988 0 0 1 .739.207 1.013 1.013 0 0 1 .376.669 1.005 1.005 0 0 1-.506.993l-11.26 6.3a.988.988 0 0 1-.489.13zM69.214 204.168a5.421 5.421 0 0 1-3.15-1.005 5.646 5.646 0 0 1-1.352-7.815 5.544 5.544 0 0 1 7.73-1.369h.01a5.632 5.632 0 0 1 1.356 7.801 5.607 5.607 0 0 1-2.007 1.75c-.8.415-1.688.631-2.589.63l.002.008zm.053-9.179a3.547 3.547 0 0 0-1.912.559c-.39.251-.728.576-.992.958a3.593 3.593 0 0 0 .877 5.032 3.41 3.41 0 0 0 2.597.575 3.512 3.512 0 0 0 2.317-1.46 3.625 3.625 0 0 0-.871-5.028 3.512 3.512 0 0 0-2.016-.636zM84.589 239.177h-.033a1.01 1.01 0 0 1-.972-1.043 26.661 26.661 0 0 1 6.522-16.531 26.727 26.727 0 0 1 15.471-8.775 26.25 26.25 0 0 1 19.814 4.459 24.364 24.364 0 0 1 2.507 2 1.006 1.006 0 0 1-.225 1.676 1.023 1.023 0 0 1-.783.028 1.007 1.007 0 0 1-.338-.214 22.062 22.062 0 0 0-2.323-1.844 24.431 24.431 0 0 0-8.786-3.896 24.455 24.455 0 0 0-18.558 3.305 24.4 24.4 0 0 0-6.895 6.689 24.436 24.436 0 0 0-4.388 13.182 1.006 1.006 0 0 1-1.013.964z"/><path d="M159.898 237.491h-.051a1.006 1.006 0 0 1-.693-.325.996.996 0 0 1-.261-.718c.046-.74.034-1.482-.036-2.22a19.123 19.123 0 0 0-8.016-14.368 18.891 18.891 0 0 0-26.401 4.73 1.015 1.015 0 0 1-.647.415 1.014 1.014 0 0 1-.752-.164 1 1 0 0 1-.251-1.397 20.881 20.881 0 0 1 13.518-8.687 20.91 20.91 0 0 1 15.695 3.472 21.13 21.13 0 0 1 8.856 15.838c.076.827.09 1.658.041 2.487a1.004 1.004 0 0 1-1.002.937zM87.57 227.822a1.009 1.009 0 0 1-.576-.184 16.056 16.056 0 0 0-14.834-1.965.996.996 0 0 1-.799.009 1.004 1.004 0 0 1 .102-1.887 18.071 18.071 0 0 1 16.684 2.21 1 1 0 0 1 .01 1.628c-.172.126-.38.193-.593.193l.006-.004zM137.859 266.502a1.003 1.003 0 0 1-.884-.528 16.234 16.234 0 0 0-4.949-5.595 16.054 16.054 0 0 0-12.071-2.68 16.062 16.062 0 0 0-10.394 6.688 1.012 1.012 0 0 1-.649.429 1.006 1.006 0 0 1-1.179-.82 1.009 1.009 0 0 1 .18-.757 18.059 18.059 0 0 1 18.792-7.369 18.07 18.07 0 0 1 6.487 2.871 18.222 18.222 0 0 1 5.557 6.282.989.989 0 0 1 .113.376.99.99 0 0 1-.226.735.985.985 0 0 1-.305.247.986.986 0 0 1-.472.121z"/><path d="M129.542 258.476a1.006 1.006 0 0 1-1.005-.966 25.805 25.805 0 0 1 4.552-15.734 24.997 24.997 0 0 1 11.774-9.247 25.034 25.034 0 0 1 14.953-.867 1.01 1.01 0 0 1 .763 1.22 1.003 1.003 0 0 1-1.241.729 23.028 23.028 0 0 0-13.761.796 22.985 22.985 0 0 0-10.833 8.51 23.789 23.789 0 0 0-4.199 14.518 1.006 1.006 0 0 1-.584.952.987.987 0 0 1-.382.091l-.037-.002zM158.387 229.787a1.017 1.017 0 0 1-.44-.098 1.015 1.015 0 0 1-.545-.689 1.02 1.02 0 0 1 .005-.45 11.301 11.301 0 0 1 5.957-7.37.997.997 0 0 1 1.103.159 1 1 0 0 1 .075 1.415 1.015 1.015 0 0 1-.313.235 9.11 9.11 0 0 0-3.506 3.039 8.975 8.975 0 0 0-1.36 2.992 1.004 1.004 0 0 1-.976.767z"/><path d="M163.399 223.57a.997.997 0 0 1-.919-.601 11.198 11.198 0 0 1 .33-9.743 11.223 11.223 0 0 1 7.843-5.807 1.007 1.007 0 0 1 1.145.805 1.002 1.002 0 0 1-.773 1.166 9.233 9.233 0 0 0-6.44 4.773 9.207 9.207 0 0 0-.267 8.003 1 1 0 0 1-.919 1.404z"/><path d="M170.438 209.205a1.007 1.007 0 0 1-.991-.847 11.108 11.108 0 0 1 1.881-8.199 11.055 11.055 0 0 1 3.119-3.018 11.099 11.099 0 0 1 8.384-1.501c1.428.315 2.779.909 3.975 1.748a.998.998 0 0 1 .442.651 1.003 1.003 0 0 1-.832 1.184 1.004 1.004 0 0 1-.763-.193 9.068 9.068 0 0 0-12.679 2.276 9.131 9.131 0 0 0-1.546 6.739 1.003 1.003 0 0 1-.99 1.16zM192.121 213.177a.977.977 0 0 1-.57-.18 1.001 1.001 0 0 1-.255-1.393c.473-.67.745-1.46.783-2.279a4.314 4.314 0 0 0-4.663-4.497 1.009 1.009 0 0 1-1.032-.934 1.002 1.002 0 0 1 .894-1.067 6.32 6.32 0 0 1 4.152 1.145 6.378 6.378 0 0 1 2.539 4.074 6.362 6.362 0 0 1-1.023 4.688.992.992 0 0 1-.825.443zM272.442 170.886a1.004 1.004 0 0 1-1.001-.924 5.458 5.458 0 0 0-4.763-5.022 5.352 5.352 0 0 0-4.072 1.154 1.007 1.007 0 0 1-1.626-.898c.03-.265.164-.507.373-.673a7.32 7.32 0 0 1 5.571-1.571 7.46 7.46 0 0 1 6.517 6.853 1.002 1.002 0 0 1-.924 1.079l-.075.002z"/><path d="M191.407 206.115a1 1 0 0 1-.892-.541 5.397 5.397 0 0 1-.493-3.546 5.243 5.243 0 0 1 .807-1.923 5.246 5.246 0 0 1 1.491-1.459 5.17 5.17 0 0 1 3.915-.74 1.005 1.005 0 0 1 .774 1.19 1.005 1.005 0 0 1-1.192.773 3.149 3.149 0 0 0-2.401.457 3.272 3.272 0 0 0-1.42 2.086 3.405 3.405 0 0 0 .305 2.224 1.003 1.003 0 0 1-.418 1.354c-.146.079-.31.122-.476.125zM296.035 172.042a1.017 1.017 0 0 1-.916-.594 1 1 0 0 1-.022-.767 15.74 15.74 0 0 0 .349-10.207 15.757 15.757 0 0 0-5.99-8.278 15.379 15.379 0 0 0-6.353-2.637.995.995 0 0 1-.667-.404.988.988 0 0 1-.177-.758.995.995 0 0 1 .419-.657 1 1 0 0 1 .763-.159c2.589.44 5.044 1.46 7.181 2.983a17.76 17.76 0 0 1 6.752 9.328 17.733 17.733 0 0 1-.393 11.503 1.003 1.003 0 0 1-.946.647z"/><path d="M315.767 176.503a1.003 1.003 0 0 1-.963-.713 15.665 15.665 0 0 0-5.948-8.261 15.422 15.422 0 0 0-11.534-2.598 1.006 1.006 0 0 1-1.124-.822 1.006 1.006 0 0 1 .779-1.153 17.447 17.447 0 0 1 13.041 2.935 17.914 17.914 0 0 1 6.71 9.319 1.008 1.008 0 0 1-.67 1.252.989.989 0 0 1-.291.041z"/><path d="M340.95 190.706a1.388 1.388 0 0 1-.158 0 .99.99 0 0 1-.658-.402 1.014 1.014 0 0 1-.178-.749c1.387-8.641-2.156-17.107-9.253-22.093a22.095 22.095 0 0 0-23.067-1.575 1.01 1.01 0 0 1-.766.068 1.003 1.003 0 0 1-.163-1.848 24.12 24.12 0 0 1 25.155 1.717c7.73 5.424 11.589 14.643 10.079 24.05a1.01 1.01 0 0 1-.343.597 1.01 1.01 0 0 1-.648.235zM153.532 264.459a1.008 1.008 0 0 1-1.005-.993 18.267 18.267 0 0 1 3.282-10.694 18.08 18.08 0 0 1 9.367-6.929 18.107 18.107 0 0 1 11.654.218 1 1 0 0 1 .515 1.251 1.003 1.003 0 0 1-1.2.626 16.116 16.116 0 0 0-10.358-.189 16.079 16.079 0 0 0-8.325 6.156 16.26 16.26 0 0 0-2.925 9.53 1.007 1.007 0 0 1-.995 1.016l-.01.008zM405.679 183.932c-.05.003-.101.003-.152 0a1.008 1.008 0 0 1-.836-1.143 13.739 13.739 0 0 1 2.271-5.668 13.51 13.51 0 0 1 5.517-4.591 13.534 13.534 0 0 1 13.758 1.547 13.493 13.493 0 0 1 4.356 5.702 1.002 1.002 0 0 1-.557 1.307 1.012 1.012 0 0 1-.77-.007 1.01 1.01 0 0 1-.539-.549 11.458 11.458 0 0 0-3.689-4.888 11.48 11.48 0 0 0-16.434 2.593 11.739 11.739 0 0 0-1.938 4.834 1.01 1.01 0 0 1-.987.863z"/><path d="M449.876 195.121a1.006 1.006 0 0 1-.976-.766 17.64 17.64 0 0 0-6.921-10.291 17.162 17.162 0 0 0-19.818-.114 1.005 1.005 0 0 1-1.143-1.651 19.164 19.164 0 0 1 22.118.126 19.64 19.64 0 0 1 7.716 11.457 1.01 1.01 0 0 1-.117.758c-.069.112-.159.21-.265.288a1.022 1.022 0 0 1-.594.193z"/><path d="M465.551 198.372a1.009 1.009 0 0 1-.961-.708 11.455 11.455 0 0 0-11.174-8.111c-1.653.03-3.281.416-4.77 1.133a1.006 1.006 0 0 1-1.343-.46.997.997 0 0 1-.047-.765.997.997 0 0 1 .508-.575 13.486 13.486 0 0 1 15.925 3.168 13.457 13.457 0 0 1 2.821 5.02.999.999 0 0 1-.073.763 1.01 1.01 0 0 1-.886.535zM319.509 163.545a1.003 1.003 0 0 1-.98-1.231 16.347 16.347 0 0 1 2.582-5.769 16.688 16.688 0 0 1 15.241-7.122 16.517 16.517 0 0 1 8.085 2.992.998.998 0 0 1 .436.654 1.008 1.008 0 0 1-.17.768 1.007 1.007 0 0 1-1.434.209 14.766 14.766 0 0 0-19.534 2.403 14.714 14.714 0 0 0-3.248 6.317 1.006 1.006 0 0 1-.978.779zM455.287 251.375a1.007 1.007 0 0 1-.974-1.256 22.856 22.856 0 0 1 4.285-8.52 22.755 22.755 0 0 1 15.349-8.533 22.793 22.793 0 0 1 16.86 4.928 21.343 21.343 0 0 1 4.072 4.193 1.004 1.004 0 0 1-.185 1.428 1.007 1.007 0 0 1-1.424-.226 19.32 19.32 0 0 0-3.706-3.818 20.956 20.956 0 0 0-28.329 2.053 20.896 20.896 0 0 0-4.976 9.004 1.009 1.009 0 0 1-.972.747z"/><path d="M457.435 245.395a1 1 0 0 1-.769-.356 16.011 16.011 0 0 0-2.135-2.087c-5.915-4.731-14.05-5.042-20.234-.753-.219.141-.484.192-.74.141a.999.999 0 0 1-.796-1.146c.042-.257.182-.487.391-.643 6.917-4.798 16.018-4.46 22.643.835a17.798 17.798 0 0 1 2.409 2.345 1.007 1.007 0 0 1 .14 1.068 1 1 0 0 1-.909.58v.016zM481.345 193.111a1.02 1.02 0 0 1-.887-.531.995.995 0 0 1-.074-.764 23.901 23.901 0 0 1 7.171-11.056 23.95 23.95 0 0 1 11.947-5.584 23.975 23.975 0 0 1 13.096 1.584 23.937 23.937 0 0 1 10.266 8.272 1.014 1.014 0 0 1 .188.758 1.023 1.023 0 0 1-.414.663 1.003 1.003 0 0 1-1.416-.266 21.979 21.979 0 0 0-9.416-7.528 22.012 22.012 0 0 0-22.907 3.658 21.952 21.952 0 0 0-6.595 10.085.998.998 0 0 1-.959.709z"/><path d="M505.212 177.065a1.006 1.006 0 0 1-.984-.807 27.13 27.13 0 0 1 4.337-20.906c7.246-10.454 20.913-14.411 32.496-9.421a1.002 1.002 0 0 1-.029 1.854 1.005 1.005 0 0 1-.769-.012c-10.703-4.621-23.343-.951-30.045 8.718a25.138 25.138 0 0 0-4.018 19.374 1.003 1.003 0 0 1-.988 1.2z"/><path d="M539.35 152.268a1 1 0 0 1-.988-.82.995.995 0 0 1 .006-.392 26.012 26.012 0 0 1 4.136-9.513c6.268-9.002 17.549-13.13 28.062-10.264a1.002 1.002 0 1 1-.528 1.934c-9.694-2.637-20.094 1.168-25.885 9.477a23.994 23.994 0 0 0-3.819 8.785 1.005 1.005 0 0 1-.984.793zM389.286 178.717c-5.576 0-10.114-4.573-10.114-10.193 0-5.62 4.538-10.222 10.114-10.222 5.576 0 10.115 4.589 10.115 10.222 0 5.633-4.533 10.193-10.115 10.193zm0-18.417c-4.469 0-8.104 3.689-8.104 8.224s3.635 8.186 8.104 8.186c4.468 0 8.106-3.671 8.106-8.186 0-4.514-3.636-8.23-8.106-8.23v.006zM573.999 63.956a2.03 2.03 0 0 1-2.04-2.007 2.066 2.066 0 0 1 2.04-2.045 2.025 2.025 0 0 1 1.999 2.045 1.972 1.972 0 0 1-.577 1.423 1.981 1.981 0 0 1-1.422.584zM567.873 55.572a2.075 2.075 0 0 1-2.041-2.049 2.016 2.016 0 0 1 2.02-2.017 2.015 2.015 0 0 1 2.02 2.017 2.048 2.048 0 0 1-1.999 2.049zm0-2.007a.09.09 0 0 0-.048 0h.048zM550.965 84.259a5.969 5.969 0 0 1-5.563-3.635 5.952 5.952 0 0 1 1.258-6.519 5.971 5.971 0 0 1 9.203.894 5.954 5.954 0 0 1 1 3.322 5.935 5.935 0 0 1-1.726 4.18 5.952 5.952 0 0 1-4.172 1.758zm0-9.912a3.96 3.96 0 0 0-3.868 3.953 3.96 3.96 0 0 0 3.868 3.952 3.963 3.963 0 0 0 2.741-1.19 3.95 3.95 0 0 0 0-5.526 3.963 3.963 0 0 0-2.741-1.189z"/><path d="M551.045 73.99a1.009 1.009 0 0 1-.918-.592c-.622-1.39-.937-2.9-.923-4.422 0-6.06 4.895-10.993 10.912-10.993.73.002 1.458.072 2.175.209a1.012 1.012 0 0 1 .644.42 1.01 1.01 0 0 1-.262 1.4.992.992 0 0 1-.756.15 9.945 9.945 0 0 0-1.801-.182c-4.91 0-8.902 4.033-8.902 8.987a8.573 8.573 0 0 0 .748 3.6 1.006 1.006 0 0 1-.506 1.328c-.129.06-.269.092-.411.096z"/><path d="M553.472 73.667a.99.99 0 0 1-.209-.023 1.001 1.001 0 0 1-.777-1.187 11.308 11.308 0 0 1 1.745-4.1 10.794 10.794 0 0 1 12.896-4.068c1.52.592 2.885 1.519 3.995 2.713a1.007 1.007 0 0 1 .17 1.105.998.998 0 0 1-.57.518 1.002 1.002 0 0 1-1.086-.271 8.841 8.841 0 0 0-13.742 1.13 9.235 9.235 0 0 0-1.442 3.376 1.004 1.004 0 0 1-.98.807z"/><path d="M572.843 80.808a1.006 1.006 0 0 1-.986-.82 9.24 9.24 0 0 0-.503-1.7 8.916 8.916 0 0 0-8.185-5.646 8.926 8.926 0 0 0-3.435.64 9.286 9.286 0 0 0-2.99 2.046 1.009 1.009 0 0 1-1.738-.665 1.005 1.005 0 0 1 .276-.718 11.315 11.315 0 0 1 3.662-2.504 10.946 10.946 0 0 1 11.947 2.523 10.91 10.91 0 0 1 2.324 3.602c.269.67.473 1.364.61 2.072a1.004 1.004 0 0 1-.804 1.17 1.15 1.15 0 0 1-.178 0z"/><path d="M568.032 92.124a1.008 1.008 0 0 1-.936-1.373c.228-.58.414-1.176.554-1.784.961-4.852-2.167-9.615-6.978-10.587a8.696 8.696 0 0 0-3.602 0 1.021 1.021 0 0 1-1.199-.763 1.008 1.008 0 0 1 .766-1.198 10.746 10.746 0 0 1 4.438 0c5.889 1.19 9.721 7.01 8.538 12.974-.164.715-.38 1.417-.647 2.1a1.016 1.016 0 0 1-.934.63z"/><path d="M558.127 98.583a1.006 1.006 0 0 1-.954-1.326c.069-.202.2-.377.375-.5.505-.332.978-.71 1.415-1.126a9.095 9.095 0 0 0 2.753-6.33 9.092 9.092 0 0 0-2.488-6.438 9.265 9.265 0 0 0-2.977-2.059 1.008 1.008 0 0 1-.634-.943 1.012 1.012 0 0 1 .314-.718 1.007 1.007 0 0 1 1.124-.177 11.282 11.282 0 0 1 3.629 2.504 11.098 11.098 0 0 1-.309 15.575c-.515.499-1.075.95-1.671 1.348a1 1 0 0 1-.577.19z"/><path d="M545.832 98.582a1.004 1.004 0 1 1 0-2.006c.59.006 1.18-.041 1.761-.142 4.831-.895 8.056-5.596 7.196-10.477a9.397 9.397 0 0 0-1.396-3.426 1.004 1.004 0 0 1 1.031-1.544c.261.052.492.205.64.426a11.394 11.394 0 0 1 1.705 4.172c1.045 5.982-2.898 11.723-8.799 12.818-.706.125-1.421.185-2.138.18z"/><path d="M540.607 95.72a10.89 10.89 0 0 1-3.93-.736 13.337 13.337 0 0 1-1.976-1.018 1.005 1.005 0 0 1-.378-1.442 1.003 1.003 0 0 1 1.475-.227c.526.32 1.077.6 1.648.834a8.818 8.818 0 0 0 6.771-.188 8.93 8.93 0 0 0 4.736-4.992 9.074 9.074 0 0 0 .571-3.592 1.001 1.001 0 0 1 .942-1.062 1.02 1.02 0 0 1 1.063.94 11.044 11.044 0 0 1-.693 4.413 10.956 10.956 0 0 1-4.017 5.125 10.978 10.978 0 0 1-6.22 1.945h.008z"/><path d="M539.788 89.345a10.978 10.978 0 0 1-2.089-.209 10.856 10.856 0 0 1-6.995-4.648 9.349 9.349 0 0 1-1.044-1.954.992.992 0 0 1-.006-.783.993.993 0 0 1 .558-.549 1.007 1.007 0 0 1 1.315.593c.216.55.497 1.073.836 1.556a8.887 8.887 0 0 0 9.191 3.798 8.79 8.79 0 0 0 3.19-1.359 9.327 9.327 0 0 0 2.542-2.641 1.006 1.006 0 1 1 1.695 1.079 11.317 11.317 0 0 1-3.097 3.212 10.794 10.794 0 0 1-6.096 1.905z"/><path d="M542.364 82.815a10.793 10.793 0 0 1-7.602-3.117 10.99 10.99 0 0 1-3.305-7.742c.002-.727.072-1.451.208-2.165a1.018 1.018 0 0 1 .42-.644 1.007 1.007 0 0 1 1.552.62c.027.128.029.261.005.391a9.434 9.434 0 0 0-.182 1.782 9.003 9.003 0 0 0 2.701 6.327 9.01 9.01 0 0 0 9.895 1.782 1.006 1.006 0 0 1 .806 1.84c-1.42.612-2.951.927-4.498.926zM545.753 76.515a.965.965 0 0 1-.274-.04 10.052 10.052 0 0 1-4.019-2.265c-4.651-4.212-5.472-11.998-1.83-17.357a10.34 10.34 0 0 1 1.462-1.788 1.004 1.004 0 0 1 1.427 1.41c-.457.44-.864.93-1.212 1.46-3.123 4.59-2.444 11.214 1.492 14.779a8.085 8.085 0 0 0 3.219 1.823 1.005 1.005 0 0 1 .723 1.104 1.005 1.005 0 0 1-.996.866l.008.008z"/><path d="M548.617 74.59c-.233 0-.459-.082-.639-.23a12.119 12.119 0 0 1-2.99-3.588c-3.119-5.633-1.345-12.753 3.957-15.866a9.198 9.198 0 0 1 2.037-.934 1.008 1.008 0 0 1 1.3.643 1.02 1.02 0 0 1-.078.783 1.009 1.009 0 0 1-.62.487 7.283 7.283 0 0 0-1.609.744c-4.387 2.573-5.825 8.483-3.224 13.18a10.107 10.107 0 0 0 2.507 3.003 1.003 1.003 0 0 1-.639 1.777h-.002zM123.258 205.193a3.867 3.867 0 0 1-3.586-2.359 3.847 3.847 0 0 1 .817-4.209 3.859 3.859 0 0 1 4.209-.848 3.859 3.859 0 0 1 2.389 3.562 3.841 3.841 0 0 1-1.117 2.718 3.852 3.852 0 0 1-2.712 1.136zm0-5.7a1.827 1.827 0 0 0-1.299.541 1.812 1.812 0 0 0-.521 1.305 1.817 1.817 0 0 0 1.82 1.817 1.819 1.819 0 0 0 1.819-1.817 1.812 1.812 0 0 0-1.819-1.846zM366.246 186.294a4.81 4.81 0 0 1-4.452-2.944 4.796 4.796 0 0 1 3.476-6.557 4.81 4.81 0 0 1 4.941 2.022c.531.788.816 1.715.819 2.664a4.773 4.773 0 0 1-2.945 4.446 4.8 4.8 0 0 1-1.839.369zm0-7.584a2.797 2.797 0 0 0-1.925.843 2.787 2.787 0 0 0 1.925 4.734 2.827 2.827 0 0 0 2.775-2.808 2.774 2.774 0 0 0-2.775-2.762v-.007zM345.923 177.267a3.807 3.807 0 0 1-2.123-.622 3.804 3.804 0 0 1-1.415-1.698 3.784 3.784 0 0 1 .808-4.149 3.804 3.804 0 0 1 5.857.58c.417.628.637 1.364.633 2.117a3.775 3.775 0 0 1-1.103 2.659 3.79 3.79 0 0 1-2.657 1.113zm0-5.579a1.788 1.788 0 0 0-1.265 3.049c.335.335.79.523 1.265.523a1.754 1.754 0 0 0 1.74-1.765 1.778 1.778 0 0 0-1.74-1.807zM74.206 90.518a1.005 1.005 0 0 1-.985-1.206c.041-.195.14-.374.283-.513l4.892-4.775a1.003 1.003 0 0 1 1.12-.243 1.004 1.004 0 0 1 .284 1.676l-4.892 4.775c-.188.183-.44.286-.702.286z"/><path d="M91.519 97.9a1.007 1.007 0 0 1-.717-.297L67.493 73.97a1.003 1.003 0 0 1-.014-1.393l8.511-8.988a1.017 1.017 0 0 1 .72-.315 1.004 1.004 0 0 1 .717.3l23.284 23.633a.999.999 0 0 1 0 1.387l-8.474 8.99a1.002 1.002 0 0 1-.72.315l.002.002zM69.595 73.254l21.899 22.199 7.103-7.527-21.872-22.201-7.13 7.529zM67.401 120.85a1.01 1.01 0 0 1-.73-.313L43.997 96.663a1.005 1.005 0 0 1 0-1.379l8.566-9.027a.996.996 0 0 1 1.122-.231c.125.053.238.131.332.23l22.716 23.873a1.007 1.007 0 0 1 0 1.384l-8.593 9.027a1.004 1.004 0 0 1-.737.31zm-21.29-24.877 21.292 22.42 7.206-7.573-21.322-22.416-7.176 7.569zM73.688 100.147a1.005 1.005 0 0 1-.736-.32l-8.356-8.989a1.002 1.002 0 0 1 .075-1.437l5.29-4.614a1.008 1.008 0 0 1 1.408.085l8.116 9.027a1.003 1.003 0 0 1-.073 1.414l-5.052 4.573a.998.998 0 0 1-.672.261zm-6.913-9.916 6.973 7.51 3.577-3.235-6.786-7.548-3.764 3.273z"/><path d="M72.413 78.321a1.006 1.006 0 0 1-.984-1.205c.04-.195.138-.374.28-.514l8.32-8.184a1.005 1.005 0 1 1 1.41 1.43l-8.315 8.183a1 1 0 0 1-.71.29zM75.837 81.501a1.005 1.005 0 0 1-.708-1.717l8.313-8.224a1.004 1.004 0 0 1 1.658.32 1 1 0 0 1-.244 1.105l-8.313 8.226a1.01 1.01 0 0 1-.706.29zM79.376 84.7a.992.992 0 0 1-.714-.299 1.002 1.002 0 0 1 0-1.419l8.315-8.186a1.007 1.007 0 0 1 1.711.721 1.004 1.004 0 0 1-.3.708l-8.306 8.197a1 1 0 0 1-.706.277zM82.796 88.953a1.006 1.006 0 0 1-.982-1.202c.04-.195.135-.373.276-.513l8.315-8.226a1.006 1.006 0 0 1 1.713.719 1.003 1.003 0 0 1-.298.708l-8.316 8.224c-.188.186-.443.29-.708.29zM86.504 92.525a1.006 1.006 0 0 1-.984-1.204c.04-.195.137-.374.278-.513l8.315-8.187a1.006 1.006 0 0 1 1.413 1.43l-8.315 8.186a1.008 1.008 0 0 1-.707.288z"/><path d="M95.727 92.606a1.003 1.003 0 0 1-.71-.296L72.101 69.362a1.001 1.001 0 0 1 .714-1.71 1.005 1.005 0 0 1 .709.296l22.914 22.948a1.003 1.003 0 0 1-.712 1.71zM71.818 115.635a1.014 1.014 0 0 1-.71-.294L48.15 92.393a1.002 1.002 0 0 1 .712-1.713 1.007 1.007 0 0 1 .711.294l22.956 22.948a1.007 1.007 0 0 1 .215 1.093 1.002 1.002 0 0 1-.927.618v.002z"/><path d="M48.544 100.229a1.012 1.012 0 0 1-.928-.624 1.005 1.005 0 0 1 .222-1.095l8.315-8.184a1.005 1.005 0 0 1 1.412 1.428L49.25 99.94c-.188.186-.441.29-.706.29zM51.847 103.84a1.004 1.004 0 0 1-.706-1.717l8.313-8.224a1.007 1.007 0 0 1 1.658.32 1.003 1.003 0 0 1-.244 1.105l-8.313 8.226a1.018 1.018 0 0 1-.708.29zM54.99 107.33a1.004 1.004 0 0 1-1.007-1.007c0-.266.106-.521.294-.71l8.313-8.226a1.006 1.006 0 0 1 1.414 1.427l-8.313 8.226c-.187.184-.439.288-.702.29zM58.61 111.542a1.008 1.008 0 0 1-.931-.623 1 1 0 0 1 .225-1.096l8.315-8.184a1.005 1.005 0 0 1 1.412 1.429l-8.315 8.184c-.188.186-.442.29-.706.29zM63.145 115.635a1.003 1.003 0 0 1-.706-1.717l8.315-8.186a1.01 1.01 0 0 1 .713-.29 1.005 1.005 0 0 1 .7 1.719l-8.315 8.186a1.008 1.008 0 0 1-.706.288zM65.293 100.228a1.002 1.002 0 0 1-.7-1.723l4.456-4.333a1.005 1.005 0 1 1 1.4 1.438l-4.454 4.333c-.188.183-.44.285-.702.285zM478.201 83.136c-4.216 0-7.648-3.475-7.648-7.746a7.649 7.649 0 0 1 1.336-4.233 7.68 7.68 0 0 1 11.794-1.056 7.65 7.65 0 0 1 1.61 8.342 7.66 7.66 0 0 1-2.834 3.418 7.68 7.68 0 0 1-4.258 1.275zm0-13.443a5.68 5.68 0 0 0-4 1.683 5.666 5.666 0 0 0-1.641 4.014c0 3.165 2.53 5.74 5.641 5.74a5.728 5.728 0 0 0 4.049-1.676 5.714 5.714 0 0 0-4.049-9.761z"/><path d="M471.579 80.558c-1.868 0-3.366-.363-4.116-1.214a2.042 2.042 0 0 1-.479-1.719c.285-1.646 2.355-3.13 4.041-4.07a1.001 1.001 0 0 1 1.139.06 1 1 0 0 1 .385.685.998.998 0 0 1-.54 1.003c-2.438 1.369-3.088 2.462-3.048 2.712.664.753 5.06.993 11.127-1.193 5.281-1.89 7.291-4.022 7.201-4.552-.278-.332-1.433-.755-4.178-.488a1.005 1.005 0 0 1-1.066-.904 1.002 1.002 0 0 1 .872-1.093c3.004-.296 4.984.096 5.876 1.154a2.036 2.036 0 0 1 .431 1.907c-.596 2.294-4.759 4.54-8.459 5.864-3.078 1.104-6.508 1.848-9.186 1.848zM138.423 85.421c-.405 0-.9-.156-1.475-.626-2.716-2.186-21.957-28.113-23.399-31.526a1.015 1.015 0 0 1-.031-.787 1.001 1.001 0 0 1 .942-.646 1.009 1.009 0 0 1 .938.65c1.268 2.98 20.462 28.844 22.82 30.749.337-1.344-.179-5.533-1.533-12.478-.192-.976-.343-1.752-.418-2.199a.996.996 0 0 1 .166-.765 1.002 1.002 0 0 1 1.066-.395.999.999 0 0 1 .626.473c.067.116.11.245.127.379.066.432.209 1.18.399 2.124 2.003 10.27 2.141 13.87.564 14.811-.237.15-.511.232-.792.236zM187.069 91.12a.998.998 0 0 1-.743-.33l-72.048-79.404a1.008 1.008 0 0 1-.193-1.12 1.012 1.012 0 0 1 .98-.581 1.004 1.004 0 0 1 .701.354l72.047 79.404a.998.998 0 0 1 .166 1.074 1.003 1.003 0 0 1-.91.595v.009z"/><path d="M179.67 100.951a1.019 1.019 0 0 1-.598-.196L91.667 35.993a1.004 1.004 0 1 1 1.2-1.612l87.402 64.761a1.004 1.004 0 0 1-.599 1.809z"/><path d="M92.269 36.19a1.005 1.005 0 0 1-.937-1.368c.08-.204.224-.376.41-.49 9-5.49 16.329-13.379 22.405-24.114a1.004 1.004 0 0 1 1.37-.38 1.004 1.004 0 0 1 .38 1.369c-6.25 11.038-13.807 19.161-23.106 24.836a.997.997 0 0 1-.522.148zM99.11 40.964a1.006 1.006 0 0 1-.955-1.315c.066-.202.194-.378.367-.502 7.907-5.685 14.578-12.892 20.992-22.683a.996.996 0 0 1 .637-.485 1.005 1.005 0 0 1 1.228.806.996.996 0 0 1-.194.776c-6.552 10.014-13.383 17.38-21.498 23.215a1 1 0 0 1-.576.188zM106.669 13.922c-.101 0-.201-.015-.298-.044L87.035 7.859a1.004 1.004 0 1 1 .598-1.915l19.346 6.017a1.008 1.008 0 0 1 .693 1.108 1.002 1.002 0 0 1-.992.853h-.011z"/><path d="M92.266 36.191a1.008 1.008 0 0 1-.948-.674L79.422 1.331a.997.997 0 0 1 .21-1.016 1.015 1.015 0 0 1 1.002-.28l34.612 9.712a1.014 1.014 0 0 1 .618.471.995.995 0 0 1-.387 1.38 1.015 1.015 0 0 1-.775.08L81.944 2.488l11.263 32.371a1.004 1.004 0 0 1-.627 1.277c-.101.035-.207.054-.314.056zM121.258 46.662a45.888 45.888 0 0 1-22.318-5.791 1.002 1.002 0 1 1 .975-1.75 44.002 44.002 0 0 0 37.108 2.626 41.72 41.72 0 0 0 4.5-2.034 1.005 1.005 0 0 1 1.261 1.528 1.003 1.003 0 0 1-.319.243 43.865 43.865 0 0 1-4.721 2.136 46.317 46.317 0 0 1-16.486 3.042zM200.493 128.59c-3.454 0-7.158-1.508-10.171-4.316-4.445-4.147-6.225-10.037-4.429-14.66a1.01 1.01 0 0 1 1.862-.044.994.994 0 0 1 .019.77c-1.477 3.805.135 8.931 3.927 12.465 3.792 3.534 8.969 4.74 12.592 2.921a1.003 1.003 0 1 1 .898 1.796 10.446 10.446 0 0 1-4.698 1.068z"/><path d="M210.393 130.543c-1.723 0-3.57-.747-5.07-2.134-2.223-2.059-3.09-5.007-2.16-7.327a.992.992 0 0 1 .537-.55 1.013 1.013 0 0 1 .769-.01.997.997 0 0 1 .551.536.994.994 0 0 1 .01.769c-.616 1.535.067 3.636 1.659 5.111 1.592 1.475 3.71 1.998 5.158 1.281a1.005 1.005 0 0 1 .89 1.798 5.28 5.28 0 0 1-2.344.526zM187.579 110.873a5.356 5.356 0 0 1-3.627-1.532c-1.577-1.443-2.202-3.621-1.51-5.284a.999.999 0 0 1 .54-.572 1.006 1.006 0 0 1 1.339.554 1.003 1.003 0 0 1-.024.786c-.315.759-.065 2.053 1.026 3.05.976.924 2.231 1.239 3.134.801a.99.99 0 0 1 .78-.066 1.002 1.002 0 0 1 .101 1.868c-.548.265-1.15.4-1.759.395z"/><path d="M183.443 105.002c-2.543 0-5.267-1.101-7.477-3.156-3.285-3.048-4.582-7.394-3.237-10.81a1.012 1.012 0 0 1 1.865-.04c.107.245.113.522.016.771-1.03 2.618.094 6.159 2.732 8.61 2.639 2.451 6.203 3.284 8.695 2.042a1.007 1.007 0 0 1 1.34.455 1.003 1.003 0 0 1-.443 1.342 7.8 7.8 0 0 1-3.491.786zM222.51 134.398a4.712 4.712 0 0 1-3.035-1.193c-1.427-1.194-2.066-3.044-1.571-4.59a1.002 1.002 0 0 1 1.248-.612 1.004 1.004 0 0 1 .665 1.219c-.242.757.163 1.792.961 2.458.895.776 1.881.859 2.426.546.23-.132.502-.169.759-.102a1.007 1.007 0 0 1 .261 1.832 3.384 3.384 0 0 1-1.714.442z"/><path d="M218.541 129.564c-2.062 0-4.26-.834-6.107-2.416-2.925-2.466-4.234-6.173-3.244-9.214a.996.996 0 0 1 .879-.689 1.011 1.011 0 0 1 .974.548 1 1 0 0 1 .058.767c-.729 2.24.356 5.146 2.637 7.068 2.279 1.956 5.154 2.503 7.166 1.341a1.005 1.005 0 0 1 1.469 1.13 1.004 1.004 0 0 1-.468.608 6.7 6.7 0 0 1-3.364.857zM201.357 118.313a5.152 5.152 0 0 1-3.48-1.46c-1.481-1.4-2.077-3.425-1.488-5.044a1.01 1.01 0 0 1 .906-.746 1.004 1.004 0 0 1 .975 1.43c-.316.866.085 2.059.979 2.902.895.843 2.077 1.143 2.888.749a.996.996 0 0 1 .767-.046 1.012 1.012 0 0 1 .576.509.996.996 0 0 1-.151 1.105 1.006 1.006 0 0 1-.313.236 3.802 3.802 0 0 1-1.659.365z"/><path d="M197.44 112.75c-2.407 0-4.993-1.043-7.103-3-3.1-2.92-4.335-7.041-3.079-10.284a1.006 1.006 0 0 1 1.302-.577 1.006 1.006 0 0 1 .578 1.3c-.953 2.452.106 5.781 2.574 8.095 2.467 2.313 5.824 3.079 8.131 1.923a1.008 1.008 0 0 1 1.31.463 1.004 1.004 0 0 1-.406 1.327 7.298 7.298 0 0 1-3.307.753zM184.297 99.417a.953.953 0 0 1-.647-.253c-.863-.782-2.81-2.549-4.49-4.045a1.013 1.013 0 0 1-.348-.694 1.007 1.007 0 0 1 .57-.973 1.001 1.001 0 0 1 1.115.17 639.185 639.185 0 0 1 4.462 4.021 1.025 1.025 0 0 1 .088 1.436 1.01 1.01 0 0 1-.75.338zm-6.058-5.489a.999.999 0 0 1-.669-.255l-.209-.179c-.284-.252-.51-.453-.681-.626a1.006 1.006 0 0 1 .009-1.42 1.01 1.01 0 0 1 1.422.01c.146.148.343.321.585.536l.209.182a1 1 0 0 1 .27 1.106 1.003 1.003 0 0 1-.939.646h.003zM216.947 108.533a.991.991 0 0 1-.832-.437.992.992 0 0 1-.104-.933c1.529-3.87-.048-8.879-3.923-12.459-3.792-3.536-8.969-4.738-12.594-2.92a1.008 1.008 0 0 1-1.349-.45.996.996 0 0 1-.054-.767 1 1 0 0 1 .505-.58c4.427-2.209 10.397-.905 14.858 3.253 4.46 4.157 6.255 10.03 4.427 14.666a1.006 1.006 0 0 1-.934.627z"/><path d="M199.72 97.058a1.014 1.014 0 0 1-.917-.59.987.987 0 0 1-.021-.768c.595-1.567-.103-3.693-1.695-5.17-1.525-1.442-3.696-1.965-5.156-1.24a1.007 1.007 0 0 1-1.317-.468 1 1 0 0 1 .427-1.33c2.231-1.1 5.279-.45 7.421 1.576 2.204 2.042 3.09 5.007 2.198 7.343a1.008 1.008 0 0 1-.94.647zM220.446 114.07a.992.992 0 0 1-.683-.267 1 1 0 0 1-.257-1.085c.349-.943-.077-2.203-1.063-3.129-.949-.87-2.238-1.179-3.134-.751a1.004 1.004 0 1 1-.884-1.8c1.634-.804 3.796-.365 5.378 1.082 1.598 1.515 2.21 3.591 1.575 5.303a.999.999 0 0 1-.932.647z"/><path d="M230.115 127.111a.998.998 0 0 1-1.004-.981.998.998 0 0 1 .068-.386c1.045-2.67-.063-6.131-2.733-8.611-2.632-2.448-6.188-3.288-8.649-2.047a1.018 1.018 0 0 1-.785.085 1.017 1.017 0 0 1-.604-.508 1.003 1.003 0 0 1 .485-1.367c3.242-1.638 7.636-.686 10.922 2.366 3.286 3.052 4.569 7.379 3.236 10.808a1 1 0 0 1-.936.641zM188.979 83.817a1.002 1.002 0 0 1-.955-1.316c.209-.61-.083-1.649-1.017-2.46-.769-.666-1.782-.88-2.401-.501a1.008 1.008 0 0 1-1.382-.337 1.01 1.01 0 0 1-.117-.76 1 1 0 0 1 .455-.62c1.366-.834 3.324-.54 4.757.7 1.433 1.242 2.102 3.118 1.611 4.605a1.007 1.007 0 0 1-.951.689zM193.68 100.277a1.004 1.004 0 0 1-.888-.535.998.998 0 0 1-.071-.763c.698-2.255-.401-5.165-2.674-7.093-2.273-1.927-5.171-2.482-7.118-1.345a1.01 1.01 0 0 1-1.14-.042 1.006 1.006 0 0 1-.182-1.434.986.986 0 0 1 .309-.256c2.715-1.585 6.505-.962 9.434 1.55 2.911 2.454 4.235 6.154 3.289 9.202a1.003 1.003 0 0 1-.959.716zM206.445 106.368a.998.998 0 0 1-.831-.44 1.004 1.004 0 0 1-.105-.933c.334-.834-.076-2.044-.976-2.864-.9-.82-2.089-1.156-2.9-.759a1.013 1.013 0 0 1-.768.047 1.005 1.005 0 0 1-.113-1.852c1.573-.764 3.641-.327 5.147 1.095 1.505 1.369 2.117 3.459 1.479 5.072a1.01 1.01 0 0 1-.933.634z"/><path d="M215.593 118.685a1.003 1.003 0 0 1-.932-1.377c.974-2.42-.087-5.743-2.58-8.084-2.448-2.295-5.791-3.083-8.133-1.919a1.004 1.004 0 0 1-.771.059.994.994 0 0 1-.688-.886.993.993 0 0 1 .249-.731c.088-.099.194-.18.314-.238 3.134-1.559 7.312-.649 10.406 2.253 3.134 2.939 4.362 7.076 3.067 10.293a.999.999 0 0 1-.932.63zM176.647 86.545a.998.998 0 0 1-.713-.296 8.79 8.79 0 0 0-.744-.64 1.006 1.006 0 0 1-.142-1.388 1.004 1.004 0 0 1 1.383-.19c.326.25.636.518.928.806a1 1 0 0 1-.155 1.54c-.165.11-.359.169-.557.168zm-2.428-2.165a.999.999 0 0 1-.679-.265c-.702-.64-1.45-1.319-2.146-1.947-1.002-.905-1.892-1.708-2.365-2.16a1.007 1.007 0 0 1-.275-1.108 1.002 1.002 0 0 1 .939-.649 1.01 1.01 0 0 1 .726.308c.464.445 1.337 1.233 2.323 2.122.698.626 1.45 1.31 2.156 1.957a1.005 1.005 0 0 1 .256 1.102 1.001 1.001 0 0 1-.935.64zM226.375 126.354a1.014 1.014 0 0 1-.716-.298c-.142-.146-.332-.313-.566-.522l-.224-.209a1 1 0 0 1-.078-1.417 1.008 1.008 0 0 1 1.419-.078l.222.208c.269.242.491.438.658.607a1 1 0 0 1 .212 1.092 1.002 1.002 0 0 1-.927.617zm-2.427-2.207c-.247 0-.485-.091-.669-.255-1.686-1.502-3.637-3.275-4.462-4.022a1.023 1.023 0 0 1-.088-1.435.985.985 0 0 1 1.4-.086c.86.781 2.808 2.55 4.487 4.045a1.006 1.006 0 0 1-.098 1.576 1.01 1.01 0 0 1-.57.177zM172.947 95.535a1 1 0 0 1-.717-.3c-6.965-7.064-11.599-17.36-13.049-28.988a51.864 51.864 0 0 1-.407-5.72.994.994 0 0 1 .59-.976 1 1 0 0 1 1.123.205 1.006 1.006 0 0 1 .294.73 51.53 51.53 0 0 0 .391 5.509c1.398 11.198 5.833 21.08 12.489 27.834a.997.997 0 0 1 .21 1.09.998.998 0 0 1-.924.616zM94.556 36.043a48.33 48.33 0 0 1-2.256-.055 1.003 1.003 0 0 1-.957-1.043.973.973 0 0 1 .655-.903.98.98 0 0 1 .39-.052 42.032 42.032 0 0 0 14.624-1.844 1.007 1.007 0 0 1 1.256.665 1.003 1.003 0 0 1-.667 1.254 43.55 43.55 0 0 1-13.045 1.978zM106.352 26.951c-.817 0-1.63-.023-2.444-.07a1.01 1.01 0 0 1-.713-.325.998.998 0 0 1-.161-1.122.993.993 0 0 1 .592-.511c.127-.041.262-.057.396-.045a41.349 41.349 0 0 0 10.1-.668 1.005 1.005 0 0 1 1.003 1.546 1.005 1.005 0 0 1-.63.426c-2.684.51-5.41.768-8.143.77zM112.916 18.498c-.658 0-1.322-.01-1.991-.037a1.005 1.005 0 0 1-.905-.656 1.002 1.002 0 0 1-.06-.387.994.994 0 0 1 .318-.703.985.985 0 0 1 .727-.26c3.058.134 6.122-.05 9.142-.548a1.006 1.006 0 0 1 1.171 1.213 1.008 1.008 0 0 1-.833.765 45.293 45.293 0 0 1-7.569.613zM188.221 63.795a.997.997 0 0 1-.602-.208l-10.623-7.984a.998.998 0 0 1-.369-1.053 1.01 1.01 0 0 1 .463-.614 1 1 0 0 1 .762-.107c.128.033.248.09.353.17l10.622 7.984a1.001 1.001 0 0 1-.019 1.616 1.006 1.006 0 0 1-.587.188v.008zM208.304 85.465a1.011 1.011 0 0 1-.604-.21l-10.621-7.983a1.012 1.012 0 0 1-.391-.662 1.011 1.011 0 0 1 .192-.744 1.009 1.009 0 0 1 1.408-.198l10.622 7.986a1.002 1.002 0 0 1-.013 1.624 1.008 1.008 0 0 1-.593.186zM216.23 150.303c-.249 0-.489-.092-.675-.258l-11.417-10.312a1.02 1.02 0 0 1-.33-.695 1.003 1.003 0 0 1 .955-1.053.997.997 0 0 1 .725.258l11.417 10.312a.999.999 0 0 1 .264 1.106 1.01 1.01 0 0 1-.369.467 1.014 1.014 0 0 1-.57.175zM171.831 112.627a1.015 1.015 0 0 1-.673-.259l-11.417-10.312a1 1 0 0 1-.072-1.418 1.007 1.007 0 0 1 1.419-.071l11.418 10.312a1 1 0 0 1-.106 1.572 1.004 1.004 0 0 1-.569.176zM164.306 55.611c-2.039 0-4.532-.083-7.561-.24-.769-.04-1.385-.073-1.767-.083a1.004 1.004 0 0 1 .027-2.005h.027c.395 0 1.026.044 1.818.084 9.347.486 12.581.127 13.531-.326l-.071-.069c-1.922-1.804-31.129-18.01-34.854-18.984a1.005 1.005 0 0 1 .506-1.94c3.685.96 33.065 16.963 35.725 19.458.999.934.95 1.74.733 2.249-.549 1.287-2.766 1.856-8.114 1.856z"/></g></g><defs><clipPath id="a"><path fill="#fff" d="M0 0h574v311H0z"/></clipPath></defs></svg>