<svg width="40" height="40" fill="none" xmlns="http://www.w3.org/2000/svg"><g clip-path="url(#a)"><path d="M20 0c11 0 20 9 20 20s-9 20-20 20S0 31 0 20 9 0 20 0z" fill="url(#b)"/><path d="M25.875 7.5H14c-3.625 0-6.5 3-6.5 6.75v11.5c0 3.625 2.875 6.625 6.625 6.75H26c3.625 0 6.625-3 6.625-6.75v-11.5c-.125-3.75-3-6.75-6.75-6.75zm4.375 18.125c0 2.5-2 4.625-4.625 4.625H14.25c-2.5 0-4.625-2.125-4.5-4.625v-11.25c0-2.5 2-4.625 4.5-4.625h11.375c2.5 0 4.625 2.125 4.625 4.625v11.25z" fill="#fff"/><path d="M20 13.625c-3.5-.125-6.5 2.75-6.5 6.25-.125 3.5 2.75 6.5 6.25 6.5s6.5-2.75 6.5-6.25V20c.125-3.5-2.75-6.375-6.25-6.375zm0 10.5c-2.25 0-4.125-1.75-4.25-4 0-2.25 1.75-4.125 4-4.25s4.125 1.75 4.25 4V20c.125 2.25-1.75 4.125-4 4.125zM26.625 11.75c.75 0 1.375.625 1.375 1.5s-.625 1.5-1.375 1.5-1.375-.625-1.375-1.5.625-1.5 1.375-1.5z" fill="#fff"/></g><defs><linearGradient id="b" x1="9.997" y1="37.325" x2="30" y2="2.678" gradientUnits="userSpaceOnUse"><stop stop-color="#FEC053"/><stop offset=".327" stop-color="#F2203E"/><stop offset=".648" stop-color="#B729A8"/><stop offset="1" stop-color="#5342D6"/></linearGradient><clipPath id="a"><path fill="#fff" d="M0 0h40v40H0z"/></clipPath></defs></svg>