<svg width="40" height="40" fill="none" xmlns="http://www.w3.org/2000/svg"><g clip-path="url(#a)"><path d="M20 40c11.046 0 20-8.954 20-20S31.046 0 20 0 0 8.954 0 20s8.954 20 20 20z" fill="url(#b)"/><path d="m29.734 11.508-3.57 18.008s-.5 1.25-1.875.648l-8.242-6.32-3-1.446L8 20.703s-.773-.273-.852-.875c-.078-.601.875-.922.875-.922l20.063-7.867c0-.008 1.648-.734 1.648.469z" fill="#fff"/><path d="M15.406 29.313s-.242-.024-.539-.97c-.297-.945-1.82-5.945-1.82-5.945l12.117-7.695s.703-.422.672 0c0 0 .125.078-.25.422-.375.352-9.516 8.57-9.516 8.57" fill="#D2E4F0"/><path d="m19.203 26.266-3.258 2.976s-.258.195-.53.07l.624-5.523" fill="#B5CFE4"/></g><defs><linearGradient id="b" x1="20" y1="0" x2="20" y2="39.854" gradientUnits="userSpaceOnUse"><stop stop-color="#41BCE7"/><stop offset="1" stop-color="#22A6DC"/></linearGradient><clipPath id="a"><path fill="#fff" d="M0 0h40v40H0z"/></clipPath></defs></svg>