<svg width="40" height="40" fill="none" xmlns="http://www.w3.org/2000/svg"><g clip-path="url(#a)" fill-rule="evenodd" clip-rule="evenodd"><path d="M20 40c11.046 0 20-8.954 20-20S31.046 0 20 0 0 8.954 0 20s8.954 20 20 20z" fill="#ED1F24"/><path d="M27.811 19.23H12.19c-2.484 0-4.497 1.833-4.497 4.302v4.306c0 2.468 2.013 4.47 4.497 4.47H27.81c2.483 0 4.497-2.002 4.497-4.47v-4.272c0-2.469-2.014-4.335-4.497-4.335zm-12.559 3.503h-1.506v6.962H12.29v-6.962h-1.506V21.55h4.468v1.184zm3.859 7.259h-1.292v-.659a2.73 2.73 0 0 1-.746.556c-.258.13-.507.192-.75.192-.3 0-.523-.089-.676-.27-.15-.179-.226-.445-.226-.805v-5.024h1.291v4.61c0 .143.028.245.08.308.056.066.145.096.266.096.093 0 .215-.042.36-.126.146-.085.279-.193.4-.323v-4.565h1.292v6.01zm5.412-1.406c0 .424-.1.75-.303.978-.202.228-.496.505-.878.505-.255 0-.842-.042-1.039-.13a1.637 1.637 0 0 1-.552-.408v.46h-1.306v-8.31h1.306v2.788c.175-.181.36-.322.553-.416.198-.097.758-.143.959-.143.41 0 .721-.04.936.217.217.257.324.632.324 1.124v3.335zm4.699-1.553H26.75v1.132c0 .316.042.535.126.658.087.123.232.183.438.183.215 0 .364-.052.45-.156.084-.105.128-.332.128-.685v-.274h1.33v.308c0 .616-.16 1.08-.488 1.394-.321.31-.805.464-1.45.464-.578 0-1.034-.164-1.366-.495-.331-.328-.5-.783-.5-1.363v-2.7c0-.519.184-.946.55-1.274.366-.327.835-.49 1.414-.49.592 0 1.046.151 1.364.455.318.304.476.74.476 1.31v1.532zm-1.896-2.248c-.206 0-.352.054-.442.166-.09.106-.134.287-.134.539v.607h1.142v-.607c0-.252-.046-.433-.136-.538-.087-.113-.233-.167-.43-.167zm-5.035.079a.67.67 0 0 0-.274.058.945.945 0 0 0-.266.184v3.744c.104.096.207.171.306.214.1.041.203.064.312.064.159 0 .637-.042.711-.128.074-.085.112-.221.112-.414v-3.104c0-.204-.044-.357-.136-.462-.094-.104-.59-.156-.765-.156zm1.623-7.126c.263 0 .534-.076.813-.222.281-.148.55-.364.806-.646v.767h1.403v-6.928h-1.402v5.259c-.13.15-.275.274-.432.372-.158.098-.289.146-.392.146-.131 0-.227-.037-.284-.111-.059-.073-.091-.192-.091-.354v-5.312h-1.4v5.79c0 .413.083.722.245.926.165.208.408.313.734.313zm-4.126.074c.637 0 1.136-.17 1.501-.506.362-.34.544-.801.544-1.394v-3.58c0-.527-.186-.961-.554-1.296-.372-.334-.847-.502-1.428-.502-.637 0-1.145.16-1.522.477-.377.318-.565.744-.565 1.282v3.591c0 .59.184 1.055.551 1.405.368.348.859.523 1.473.523zm-.582-5.572a.47.47 0 0 1 .16-.367.615.615 0 0 1 .417-.139.69.69 0 0 1 .45.139c.114.095.17.216.17.367v3.774a.575.575 0 0 1-.168.439c-.112.106-.262.158-.452.158-.186 0-.329-.05-.428-.156-.1-.105-.15-.25-.15-.44l.001-3.775zm-4.972 5.397h1.579v-4.449l1.836-5.496h-1.604l-.977 3.755h-.099l-1.025-3.755h-1.59l1.88 5.671v4.274z" fill="#fff"/></g><defs><clipPath id="a"><path fill="#fff" d="M0 0h40v40H0z"/></clipPath></defs></svg>